<mxfile host="app.diagrams.net" modified="2021-01-20T10:03:58.089Z" agent="5.0 (Macintosh; Intel Mac OS X 10_13_6) AppleWebKit/537.36 (KHTML, like Gecko) Chrome/87.0.4280.141 Safari/537.36" etag="hGFXZt6nLF2ZyFw8yo_j" version="13.4.2" type="github" pages="9">
  <diagram id="6a731a19-8d31-9384-78a2-239565b7b9f0" name="Component Properties">
    <mxGraphModel dx="1186" dy="614" grid="1" gridSize="10" guides="1" tooltips="1" connect="1" arrows="1" fold="1" page="1" pageScale="1" pageWidth="1169" pageHeight="827" background="#ffffff" math="0" shadow="0">
      <root>
        <mxCell id="0" />
        <mxCell id="1" parent="0" />
        <mxCell id="2" value="start" style="shape=mxgraph.flowchart.terminator;strokeWidth=2;gradientColor=none;gradientDirection=north;fontStyle=0;html=1;" parent="1" vertex="1">
          <mxGeometry x="260" y="60" width="120" height="30" as="geometry" />
        </mxCell>
        <mxCell id="3" value="Check for validity of&lt;br&gt;&amp;nbsp;Authorization token" style="shape=mxgraph.flowchart.data;strokeWidth=2;gradientColor=none;gradientDirection=north;fontStyle=0;html=1;" parent="1" vertex="1">
          <mxGeometry x="240.5" y="130" width="159" height="80" as="geometry" />
        </mxCell>
        <mxCell id="4" value="create&#xa;material&#xa;specification" style="shape=mxgraph.flowchart.data;strokeWidth=2;gradientColor=none;gradientDirection=north;fontStyle=0;html=1;" parent="1" vertex="1">
          <mxGeometry x="570.5" y="1000" width="159" height="80" as="geometry" />
        </mxCell>
        <mxCell id="5" value="check for&#xa;obscurities" style="shape=mxgraph.flowchart.data;strokeWidth=2;gradientColor=none;gradientDirection=north;fontStyle=0;html=1;" parent="1" vertex="1">
          <mxGeometry x="572" y="780" width="159" height="80" as="geometry" />
        </mxCell>
        <mxCell id="6" value="obscurities?" style="shape=mxgraph.flowchart.decision;strokeWidth=2;gradientColor=none;gradientDirection=north;fontStyle=0;html=1;" parent="1" vertex="1">
          <mxGeometry x="601" y="880" width="98" height="57" as="geometry" />
        </mxCell>
        <mxCell id="7" style="fontStyle=1;strokeColor=#003366;strokeWidth=1;html=1;" parent="1" source="2" target="3" edge="1">
          <mxGeometry relative="1" as="geometry" />
        </mxCell>
        <mxCell id="8" style="fontStyle=1;strokeColor=#003366;strokeWidth=1;html=1;entryX=0.5;entryY=0;entryDx=0;entryDy=0;entryPerimeter=0;" parent="1" target="Ww2mU1cs7loqupJMSbrA-55" edge="1">
          <mxGeometry relative="1" as="geometry">
            <mxPoint x="312" y="209" as="sourcePoint" />
          </mxGeometry>
        </mxCell>
        <mxCell id="9" style="entryX=0.5;entryY=0;entryPerimeter=0;fontStyle=1;strokeColor=#003366;strokeWidth=1;html=1;" parent="1" source="5" target="6" edge="1">
          <mxGeometry relative="1" as="geometry" />
        </mxCell>
        <mxCell id="10" value="" style="edgeStyle=elbowEdgeStyle;elbow=horizontal;entryX=0.5;entryY=0.91;entryPerimeter=0;exitX=1;exitY=0.5;exitPerimeter=0;fontStyle=1;strokeColor=#003366;strokeWidth=1;html=1;" parent="1" source="6" target="51" edge="1">
          <mxGeometry x="711" y="518.5" width="100" height="100" as="geometry">
            <mxPoint x="1080" y="937" as="sourcePoint" />
            <mxPoint x="1095.395" y="808.5" as="targetPoint" />
            <Array as="points">
              <mxPoint x="875" y="890" />
            </Array>
          </mxGeometry>
        </mxCell>
        <mxCell id="11" value="yes" style="text;fontStyle=0;html=1;strokeColor=none;gradientColor=none;fillColor=none;strokeWidth=2;" parent="1" vertex="1">
          <mxGeometry x="700" y="880" width="40" height="26" as="geometry" />
        </mxCell>
        <mxCell id="12" value="" style="edgeStyle=elbowEdgeStyle;elbow=horizontal;fontColor=#001933;fontStyle=1;strokeColor=#003366;strokeWidth=1;html=1;" parent="1" source="6" target="4" edge="1">
          <mxGeometry x="330" y="490" width="100" height="100" as="geometry">
            <mxPoint x="330" y="590" as="sourcePoint" />
            <mxPoint x="430" y="490" as="targetPoint" />
          </mxGeometry>
        </mxCell>
        <mxCell id="13" value="order material" style="shape=mxgraph.flowchart.data;strokeWidth=2;gradientColor=none;gradientDirection=north;fontStyle=0;html=1;" parent="1" vertex="1">
          <mxGeometry x="570.5" y="1130" width="159" height="80" as="geometry" />
        </mxCell>
        <mxCell id="14" value="no" style="text;fontStyle=0;html=1;strokeColor=none;gradientColor=none;fillColor=none;strokeWidth=2;align=center;" parent="1" vertex="1">
          <mxGeometry x="650" y="937" width="40" height="26" as="geometry" />
        </mxCell>
        <mxCell id="15" value="final project" style="shape=mxgraph.flowchart.document;strokeWidth=2;gradientColor=none;gradientDirection=north;fontStyle=0;html=1;" parent="1" vertex="1">
          <mxGeometry x="810" y="1005" width="140" height="70" as="geometry" />
        </mxCell>
        <mxCell id="16" value="" style="edgeStyle=elbowEdgeStyle;elbow=horizontal;exitX=0.905;exitY=0.5;exitPerimeter=0;fontStyle=1;strokeColor=#003366;strokeWidth=1;html=1;" parent="1" source="4" target="15" edge="1">
          <mxGeometry x="330" y="490" width="100" height="100" as="geometry">
            <mxPoint x="330" y="590" as="sourcePoint" />
            <mxPoint x="430" y="490" as="targetPoint" />
          </mxGeometry>
        </mxCell>
        <mxCell id="17" value="" style="edgeStyle=elbowEdgeStyle;elbow=horizontal;fontStyle=1;strokeColor=#003366;strokeWidth=1;html=1;" parent="1" source="4" target="13" edge="1">
          <mxGeometry x="330" y="490" width="100" height="100" as="geometry">
            <mxPoint x="330" y="590" as="sourcePoint" />
            <mxPoint x="430" y="490" as="targetPoint" />
          </mxGeometry>
        </mxCell>
        <mxCell id="18" value="material&#xa;balance" style="shape=mxgraph.flowchart.predefined_process;strokeWidth=2;gradientColor=none;gradientDirection=north;fontStyle=0;html=1;" parent="1" vertex="1">
          <mxGeometry x="810" y="1125" width="190" height="90" as="geometry" />
        </mxCell>
        <mxCell id="19" value="" style="edgeStyle=elbowEdgeStyle;elbow=horizontal;exitX=0.905;exitY=0.5;exitPerimeter=0;fontStyle=1;strokeColor=#003366;strokeWidth=1;html=1;" parent="1" source="13" target="18" edge="1">
          <mxGeometry x="330" y="490" width="100" height="100" as="geometry">
            <mxPoint x="330" y="590" as="sourcePoint" />
            <mxPoint x="430" y="490" as="targetPoint" />
          </mxGeometry>
        </mxCell>
        <mxCell id="20" value="organize &#xa;workforce" style="shape=mxgraph.flowchart.manual_input;strokeWidth=2;gradientColor=none;gradientDirection=north;fontStyle=0;html=1;" parent="1" vertex="1">
          <mxGeometry x="572" y="1270" width="158" height="80" as="geometry" />
        </mxCell>
        <mxCell id="21" value="" style="edgeStyle=elbowEdgeStyle;elbow=horizontal;entryX=0.5;entryY=0.195;entryPerimeter=0;fontStyle=1;strokeColor=#003366;strokeWidth=1;html=1;" parent="1" source="13" target="20" edge="1">
          <mxGeometry x="330" y="490" width="100" height="100" as="geometry">
            <mxPoint x="330" y="590" as="sourcePoint" />
            <mxPoint x="430" y="490" as="targetPoint" />
          </mxGeometry>
        </mxCell>
        <mxCell id="22" value="create Gantt&#xa;diagram" style="shape=mxgraph.flowchart.document;strokeWidth=2;gradientColor=none;gradientDirection=north;fontStyle=0;html=1;" parent="1" vertex="1">
          <mxGeometry x="570.5" y="1410" width="159" height="90" as="geometry" />
        </mxCell>
        <mxCell id="23" value="" style="edgeStyle=elbowEdgeStyle;elbow=horizontal;exitX=0.5;exitY=1;exitPerimeter=0;fontStyle=1;strokeColor=#003366;strokeWidth=1;html=1;" parent="1" source="20" target="22" edge="1">
          <mxGeometry x="330" y="490" width="100" height="100" as="geometry">
            <mxPoint x="330" y="590" as="sourcePoint" />
            <mxPoint x="430" y="490" as="targetPoint" />
          </mxGeometry>
        </mxCell>
        <mxCell id="24" value="late&#xa;project&#xa;changes?" style="shape=mxgraph.flowchart.decision;strokeWidth=2;gradientColor=none;gradientDirection=north;fontStyle=0;html=1;" parent="1" vertex="1">
          <mxGeometry x="591.5" y="1570" width="119" height="78.5" as="geometry" />
        </mxCell>
        <mxCell id="25" value="" style="edgeStyle=elbowEdgeStyle;elbow=horizontal;exitX=0.5;exitY=0.9;exitPerimeter=0;fontStyle=1;strokeColor=#003366;strokeWidth=1;html=1;" parent="1" source="22" target="24" edge="1">
          <mxGeometry x="330" y="490" width="100" height="100" as="geometry">
            <mxPoint x="330" y="590" as="sourcePoint" />
            <mxPoint x="430" y="490" as="targetPoint" />
          </mxGeometry>
        </mxCell>
        <mxCell id="26" value="" style="edgeStyle=elbowEdgeStyle;elbow=horizontal;exitX=0;exitY=0.5;exitPerimeter=0;entryX=0;entryY=0.5;entryPerimeter=0;fontStyle=1;strokeColor=#003366;strokeWidth=1;html=1;" parent="1" source="28" target="6" edge="1">
          <mxGeometry x="330" y="490" width="100" height="100" as="geometry">
            <mxPoint x="330" y="590" as="sourcePoint" />
            <mxPoint x="430" y="490" as="targetPoint" />
            <Array as="points">
              <mxPoint x="490" y="1340" />
            </Array>
          </mxGeometry>
        </mxCell>
        <mxCell id="27" value="yes" style="text;fontStyle=0;html=1;strokeColor=none;gradientColor=none;fillColor=none;strokeWidth=2;" parent="1" vertex="1">
          <mxGeometry x="610" y="1648.5" width="40" height="26" as="geometry" />
        </mxCell>
        <mxCell id="28" value="investor&#xa;disapproves&#xa; investment?" style="shape=mxgraph.flowchart.decision;strokeWidth=2;gradientColor=none;gradientDirection=north;fontStyle=0;html=1;" parent="1" vertex="1">
          <mxGeometry x="585" y="1700" width="130" height="100" as="geometry" />
        </mxCell>
        <mxCell id="29" value="agreement?" style="shape=mxgraph.flowchart.decision;strokeWidth=2;gradientColor=none;gradientDirection=north;fontStyle=0;html=1;" parent="1" vertex="1">
          <mxGeometry x="840" y="1700" width="130" height="100" as="geometry" />
        </mxCell>
        <mxCell id="30" value="" style="edgeStyle=elbowEdgeStyle;elbow=horizontal;exitX=0.5;exitY=1;exitPerimeter=0;fontStyle=1;strokeColor=#003366;strokeWidth=1;html=1;" parent="1" source="24" target="28" edge="1">
          <mxGeometry x="330" y="490" width="100" height="100" as="geometry">
            <mxPoint x="330" y="590" as="sourcePoint" />
            <mxPoint x="430" y="490" as="targetPoint" />
          </mxGeometry>
        </mxCell>
        <mxCell id="31" value="" style="edgeStyle=elbowEdgeStyle;elbow=horizontal;exitX=1;exitY=0.5;exitPerimeter=0;entryX=0;entryY=0.5;entryPerimeter=0;fontStyle=1;strokeColor=#003366;strokeWidth=1;html=1;" parent="1" source="28" target="29" edge="1">
          <mxGeometry x="330" y="490" width="100" height="100" as="geometry">
            <mxPoint x="330" y="590" as="sourcePoint" />
            <mxPoint x="430" y="490" as="targetPoint" />
          </mxGeometry>
        </mxCell>
        <mxCell id="32" value="terminate&#xa;contract&#xa;" style="shape=mxgraph.flowchart.merge_or_storage;strokeWidth=2;gradientColor=none;gradientDirection=north;fontStyle=0;html=1;" parent="1" vertex="1">
          <mxGeometry x="1090" y="1790" width="130" height="80.5" as="geometry" />
        </mxCell>
        <mxCell id="33" value="" style="edgeStyle=elbowEdgeStyle;elbow=vertical;exitX=1;exitY=0.5;exitPerimeter=0;entryX=0.5;entryY=0;entryPerimeter=0;fontStyle=1;strokeColor=#003366;strokeWidth=1;html=1;" parent="1" source="29" target="32" edge="1">
          <mxGeometry x="330" y="490" width="100" height="100" as="geometry">
            <mxPoint x="330" y="590" as="sourcePoint" />
            <mxPoint x="430" y="490" as="targetPoint" />
            <Array as="points">
              <mxPoint x="1070" y="1750" />
            </Array>
          </mxGeometry>
        </mxCell>
        <mxCell id="34" value="create&#xa;status&#xa;report" style="shape=mxgraph.flowchart.data;strokeWidth=2;gradientColor=none;gradientDirection=north;fontStyle=0;html=1;" parent="1" vertex="1">
          <mxGeometry x="570.5" y="1980" width="159" height="80" as="geometry" />
        </mxCell>
        <mxCell id="35" value="" style="edgeStyle=elbowEdgeStyle;elbow=vertical;exitX=0.5;exitY=1;exitPerimeter=0;fontColor=#001933;fontStyle=1;strokeColor=#003366;strokeWidth=1;html=1;" parent="1" source="28" target="34" edge="1">
          <mxGeometry x="330" y="490" width="100" height="100" as="geometry">
            <mxPoint x="330" y="590" as="sourcePoint" />
            <mxPoint x="430" y="490" as="targetPoint" />
          </mxGeometry>
        </mxCell>
        <mxCell id="36" value="" style="edgeStyle=elbowEdgeStyle;elbow=vertical;exitX=0.5;exitY=1;exitPerimeter=0;entryX=0.5;entryY=0;entryPerimeter=0;fontStyle=1;strokeColor=#003366;strokeWidth=1;html=1;" parent="1" source="29" target="34" edge="1">
          <mxGeometry x="330" y="490" width="100" height="100" as="geometry">
            <mxPoint x="330" y="590" as="sourcePoint" />
            <mxPoint x="430" y="490" as="targetPoint" />
          </mxGeometry>
        </mxCell>
        <mxCell id="37" value="project&#xa;complete?" style="shape=mxgraph.flowchart.decision;strokeWidth=2;gradientColor=none;gradientDirection=north;fontStyle=0;html=1;" parent="1" vertex="1">
          <mxGeometry x="601" y="2111.5" width="98" height="57" as="geometry" />
        </mxCell>
        <mxCell id="38" value="create&#xa;final&#xa;report" style="shape=mxgraph.flowchart.data;strokeWidth=2;gradientColor=none;gradientDirection=north;fontStyle=0;html=1;" parent="1" vertex="1">
          <mxGeometry x="570.5" y="2220" width="159" height="80" as="geometry" />
        </mxCell>
        <mxCell id="39" value="issue&#xa;bill of works" style="shape=mxgraph.flowchart.predefined_process;strokeWidth=2;gradientColor=none;gradientDirection=north;fontStyle=0;html=1;" parent="1" vertex="1">
          <mxGeometry x="890" y="2215" width="190" height="90" as="geometry" />
        </mxCell>
        <mxCell id="40" value="end" style="shape=mxgraph.flowchart.terminator;strokeWidth=2;gradientColor=none;gradientDirection=north;fontStyle=0;html=1;" parent="1" vertex="1">
          <mxGeometry x="590" y="2400" width="120" height="30" as="geometry" />
        </mxCell>
        <mxCell id="41" value="" style="edgeStyle=elbowEdgeStyle;elbow=vertical;exitX=0.5;exitY=1;exitPerimeter=0;entryX=0.5;entryY=0;entryPerimeter=0;fontStyle=1;strokeColor=#003366;strokeWidth=1;html=1;" parent="1" source="34" target="37" edge="1">
          <mxGeometry x="330" y="490" width="100" height="100" as="geometry">
            <mxPoint x="330" y="590" as="sourcePoint" />
            <mxPoint x="430" y="490" as="targetPoint" />
          </mxGeometry>
        </mxCell>
        <mxCell id="42" value="" style="edgeStyle=elbowEdgeStyle;elbow=vertical;exitX=0.5;exitY=1;exitPerimeter=0;entryX=0.5;entryY=0;entryPerimeter=0;fontStyle=1;strokeColor=#003366;strokeWidth=1;html=1;" parent="1" source="37" target="38" edge="1">
          <mxGeometry x="330" y="490" width="100" height="100" as="geometry">
            <mxPoint x="330" y="590" as="sourcePoint" />
            <mxPoint x="430" y="490" as="targetPoint" />
          </mxGeometry>
        </mxCell>
        <mxCell id="43" value="" style="edgeStyle=elbowEdgeStyle;elbow=vertical;exitX=0.5;exitY=1;exitPerimeter=0;entryX=0.5;entryY=0;entryPerimeter=0;fontStyle=1;strokeColor=#003366;strokeWidth=1;html=1;" parent="1" source="38" target="40" edge="1">
          <mxGeometry x="330" y="490" width="100" height="100" as="geometry">
            <mxPoint x="330" y="590" as="sourcePoint" />
            <mxPoint x="430" y="490" as="targetPoint" />
          </mxGeometry>
        </mxCell>
        <mxCell id="44" value="" style="edgeStyle=elbowEdgeStyle;elbow=vertical;exitX=0.905;exitY=0.5;exitPerimeter=0;entryX=0;entryY=0.5;entryPerimeter=0;fontStyle=1;strokeColor=#003366;strokeWidth=1;html=1;" parent="1" source="38" target="39" edge="1">
          <mxGeometry x="330" y="490" width="100" height="100" as="geometry">
            <mxPoint x="330" y="590" as="sourcePoint" />
            <mxPoint x="430" y="490" as="targetPoint" />
          </mxGeometry>
        </mxCell>
        <mxCell id="45" value="" style="edgeStyle=elbowEdgeStyle;elbow=horizontal;exitX=1;exitY=0.5;exitPerimeter=0;entryX=0.905;entryY=0.5;entryPerimeter=0;fontStyle=1;strokeColor=#003366;strokeWidth=1;html=1;" parent="1" source="24" target="34" edge="1">
          <mxGeometry x="320" y="80" width="100" height="100" as="geometry">
            <mxPoint x="320" y="180" as="sourcePoint" />
            <mxPoint x="420" y="80" as="targetPoint" />
            <Array as="points">
              <mxPoint x="1270" y="1400" />
            </Array>
          </mxGeometry>
        </mxCell>
        <mxCell id="46" value="no" style="text;fontStyle=0;html=1;strokeColor=none;gradientColor=none;fillColor=none;strokeWidth=2;" parent="1" vertex="1">
          <mxGeometry x="710.5" y="1583.25" width="40" height="26" as="geometry" />
        </mxCell>
        <mxCell id="47" value="yes" style="text;fontColor=#001933;fontStyle=0;html=1;strokeColor=none;gradientColor=none;fillColor=none;strokeWidth=2;" parent="1" vertex="1">
          <mxGeometry x="715" y="1724" width="40" height="26" as="geometry" />
        </mxCell>
        <mxCell id="48" value="no" style="text;fontColor=#001933;fontStyle=0;html=1;strokeColor=none;gradientColor=none;fillColor=none;strokeWidth=2;align=center;" parent="1" vertex="1">
          <mxGeometry x="650" y="1800" width="40" height="26" as="geometry" />
        </mxCell>
        <mxCell id="49" value="yes" style="text;fontColor=#001933;fontStyle=0;html=1;strokeColor=none;gradientColor=none;fillColor=none;strokeWidth=2;align=center;" parent="1" vertex="1">
          <mxGeometry x="905" y="1800" width="40" height="26" as="geometry" />
        </mxCell>
        <mxCell id="50" value="no" style="text;fontColor=#001933;fontStyle=0;html=1;strokeColor=none;gradientColor=none;fillColor=none;strokeWidth=2;" parent="1" vertex="1">
          <mxGeometry x="970" y="1724" width="40" height="26" as="geometry" />
        </mxCell>
        <mxCell id="51" value="iron out&#xa;obscurities &#xa;with investor" style="shape=mxgraph.flowchart.paper_tape;strokeWidth=2;gradientColor=none;gradientDirection=north;fontStyle=0;html=1;" parent="1" vertex="1">
          <mxGeometry x="800" y="790" width="150" height="81" as="geometry" />
        </mxCell>
        <mxCell id="52" value="" style="edgeStyle=elbowEdgeStyle;elbow=horizontal;exitX=0.5;exitY=0.09;exitPerimeter=0;entryX=0.905;entryY=0.5;entryPerimeter=0;fontStyle=1;strokeColor=#003366;strokeWidth=1;html=1;" parent="1" source="51" target="5" edge="1">
          <mxGeometry x="330" y="490" width="100" height="100" as="geometry">
            <mxPoint x="330" y="590" as="sourcePoint" />
            <mxPoint x="430" y="490" as="targetPoint" />
            <Array as="points">
              <mxPoint x="875" y="790" />
            </Array>
          </mxGeometry>
        </mxCell>
        <mxCell id="53" value="yes" style="text;fontStyle=0;html=1;strokeColor=none;gradientColor=none;fillColor=none;strokeWidth=2;align=center;" parent="1" vertex="1">
          <mxGeometry x="651" y="2170" width="40" height="26" as="geometry" />
        </mxCell>
        <mxCell id="54" value="" style="edgeStyle=elbowEdgeStyle;elbow=horizontal;exitX=0;exitY=0.5;exitPerimeter=0;entryX=0.095;entryY=0.5;entryPerimeter=0;fontStyle=1;strokeColor=#003366;strokeWidth=1;html=1;" parent="1" source="37" target="5" edge="1">
          <mxGeometry x="330" y="490" width="100" height="100" as="geometry">
            <mxPoint x="330" y="590" as="sourcePoint" />
            <mxPoint x="430" y="490" as="targetPoint" />
            <Array as="points">
              <mxPoint x="450" y="1460" />
            </Array>
          </mxGeometry>
        </mxCell>
        <mxCell id="55" value="no" style="text;fontStyle=0;html=1;strokeColor=none;gradientColor=none;fillColor=none;strokeWidth=2;" parent="1" vertex="1">
          <mxGeometry x="565" y="2114" width="40" height="26" as="geometry" />
        </mxCell>
        <mxCell id="Ww2mU1cs7loqupJMSbrA-55" value="Valid?" style="shape=mxgraph.flowchart.decision;strokeWidth=2;gradientColor=none;gradientDirection=north;fontStyle=0;html=1;" parent="1" vertex="1">
          <mxGeometry x="262.5" y="250" width="98" height="57" as="geometry" />
        </mxCell>
        <mxCell id="Ww2mU1cs7loqupJMSbrA-56" value="Check for Component &lt;br&gt;Property exists" style="shape=mxgraph.flowchart.data;strokeWidth=2;gradientColor=none;gradientDirection=north;fontStyle=0;html=1;" parent="1" vertex="1">
          <mxGeometry x="230" y="350" width="159" height="80" as="geometry" />
        </mxCell>
        <mxCell id="Ww2mU1cs7loqupJMSbrA-57" style="fontStyle=1;strokeColor=#003366;strokeWidth=1;html=1;" parent="1" edge="1">
          <mxGeometry relative="1" as="geometry">
            <mxPoint x="310.5" y="320" as="sourcePoint" />
            <mxPoint x="310.5" y="350" as="targetPoint" />
            <Array as="points">
              <mxPoint x="310.5" y="300" />
              <mxPoint x="310.5" y="320" />
            </Array>
          </mxGeometry>
        </mxCell>
        <mxCell id="XY6Vcrm4PhJpd_2-ByzV-56" value="Yes" style="edgeLabel;html=1;align=center;verticalAlign=middle;resizable=0;points=[];" vertex="1" connectable="0" parent="Ww2mU1cs7loqupJMSbrA-57">
          <mxGeometry x="-0.9429" y="1" relative="1" as="geometry">
            <mxPoint x="1" as="offset" />
          </mxGeometry>
        </mxCell>
        <mxCell id="Ww2mU1cs7loqupJMSbrA-60" value="Prensent?" style="shape=mxgraph.flowchart.decision;strokeWidth=2;gradientColor=none;gradientDirection=north;fontStyle=0;html=1;" parent="1" vertex="1">
          <mxGeometry x="259.5" y="480" width="98" height="57" as="geometry" />
        </mxCell>
        <mxCell id="Ww2mU1cs7loqupJMSbrA-63" value="Return Response" style="shape=mxgraph.flowchart.data;strokeWidth=2;gradientColor=none;gradientDirection=north;fontStyle=0;html=1;" parent="1" vertex="1">
          <mxGeometry x="232" y="570" width="159" height="80" as="geometry" />
        </mxCell>
        <mxCell id="Ww2mU1cs7loqupJMSbrA-64" value="end" style="shape=mxgraph.flowchart.terminator;strokeWidth=2;gradientColor=none;gradientDirection=north;fontStyle=0;html=1;" parent="1" vertex="1">
          <mxGeometry x="240.5" y="680" width="120" height="30" as="geometry" />
        </mxCell>
        <mxCell id="Ww2mU1cs7loqupJMSbrA-66" value="" style="endArrow=classic;html=1;exitX=0.456;exitY=0.988;exitDx=0;exitDy=0;exitPerimeter=0;" parent="1" source="Ww2mU1cs7loqupJMSbrA-63" target="Ww2mU1cs7loqupJMSbrA-64" edge="1">
          <mxGeometry width="50" height="50" relative="1" as="geometry">
            <mxPoint x="79.5" y="740" as="sourcePoint" />
            <mxPoint x="129.5" y="690" as="targetPoint" />
          </mxGeometry>
        </mxCell>
        <mxCell id="Ww2mU1cs7loqupJMSbrA-67" value="" style="endArrow=classic;html=1;exitX=0.5;exitY=1;exitDx=0;exitDy=0;exitPerimeter=0;" parent="1" source="Ww2mU1cs7loqupJMSbrA-60" target="Ww2mU1cs7loqupJMSbrA-63" edge="1">
          <mxGeometry width="50" height="50" relative="1" as="geometry">
            <mxPoint x="379.5" y="770" as="sourcePoint" />
            <mxPoint x="429.5" y="720" as="targetPoint" />
          </mxGeometry>
        </mxCell>
        <mxCell id="Ww2mU1cs7loqupJMSbrA-68" value="" style="endArrow=classic;html=1;exitX=0.5;exitY=1;exitDx=0;exitDy=0;exitPerimeter=0;" parent="1" source="Ww2mU1cs7loqupJMSbrA-56" target="Ww2mU1cs7loqupJMSbrA-60" edge="1">
          <mxGeometry width="50" height="50" relative="1" as="geometry">
            <mxPoint x="379.5" y="630" as="sourcePoint" />
            <mxPoint x="429.5" y="580" as="targetPoint" />
          </mxGeometry>
        </mxCell>
        <mxCell id="XY6Vcrm4PhJpd_2-ByzV-58" value="Yes" style="edgeLabel;html=1;align=center;verticalAlign=middle;resizable=0;points=[];" vertex="1" connectable="0" parent="Ww2mU1cs7loqupJMSbrA-68">
          <mxGeometry x="-0.2383" y="-3" relative="1" as="geometry">
            <mxPoint as="offset" />
          </mxGeometry>
        </mxCell>
        <mxCell id="Ww2mU1cs7loqupJMSbrA-69" value="" style="endArrow=classic;html=1;exitX=1;exitY=0.5;exitDx=0;exitDy=0;exitPerimeter=0;entryX=1;entryY=0.5;entryDx=0;entryDy=0;entryPerimeter=0;" parent="1" source="Ww2mU1cs7loqupJMSbrA-55" target="Ww2mU1cs7loqupJMSbrA-64" edge="1">
          <mxGeometry width="50" height="50" relative="1" as="geometry">
            <mxPoint x="379.5" y="410" as="sourcePoint" />
            <mxPoint x="569.5" y="680" as="targetPoint" />
            <Array as="points">
              <mxPoint x="579.5" y="279" />
              <mxPoint x="579.5" y="695" />
            </Array>
          </mxGeometry>
        </mxCell>
        <mxCell id="XY6Vcrm4PhJpd_2-ByzV-55" value="No" style="edgeLabel;html=1;align=center;verticalAlign=middle;resizable=0;points=[];" vertex="1" connectable="0" parent="Ww2mU1cs7loqupJMSbrA-69">
          <mxGeometry x="-0.8724" y="5" relative="1" as="geometry">
            <mxPoint as="offset" />
          </mxGeometry>
        </mxCell>
        <mxCell id="Ww2mU1cs7loqupJMSbrA-70" value="" style="endArrow=classic;html=1;exitX=1;exitY=0.5;exitDx=0;exitDy=0;exitPerimeter=0;entryX=0.89;entryY=0.11;entryDx=0;entryDy=0;entryPerimeter=0;" parent="1" source="Ww2mU1cs7loqupJMSbrA-60" target="Ww2mU1cs7loqupJMSbrA-64" edge="1">
          <mxGeometry width="50" height="50" relative="1" as="geometry">
            <mxPoint x="379.5" y="480" as="sourcePoint" />
            <mxPoint x="357.5" y="683" as="targetPoint" />
            <Array as="points">
              <mxPoint x="519.5" y="509" />
              <mxPoint x="519.5" y="683" />
            </Array>
          </mxGeometry>
        </mxCell>
        <mxCell id="XY6Vcrm4PhJpd_2-ByzV-57" value="No" style="edgeLabel;html=1;align=center;verticalAlign=middle;resizable=0;points=[];" vertex="1" connectable="0" parent="Ww2mU1cs7loqupJMSbrA-70">
          <mxGeometry x="-0.7108" y="2" relative="1" as="geometry">
            <mxPoint as="offset" />
          </mxGeometry>
        </mxCell>
      </root>
    </mxGraphModel>
  </diagram>
  <diagram id="10uHa0uXPCq0os956Tsp" name="Country &amp; States">
    <mxGraphModel dx="1186" dy="671" grid="1" gridSize="10" guides="1" tooltips="1" connect="1" arrows="1" fold="1" page="1" pageScale="1" pageWidth="850" pageHeight="1100" math="0" shadow="0">
      <root>
        <mxCell id="fzGI03qIVP_NEACf6XJV-0" />
        <mxCell id="fzGI03qIVP_NEACf6XJV-1" parent="fzGI03qIVP_NEACf6XJV-0" />
        <mxCell id="0NoVHgfrJHFiWQeUb7Js-0" value="start" style="shape=mxgraph.flowchart.terminator;strokeWidth=2;gradientColor=none;gradientDirection=north;fontStyle=0;html=1;" vertex="1" parent="fzGI03qIVP_NEACf6XJV-1">
          <mxGeometry x="260" y="60" width="120" height="30" as="geometry" />
        </mxCell>
        <mxCell id="0NoVHgfrJHFiWQeUb7Js-1" value="Check for validity of&lt;br&gt;&amp;nbsp;Authorization token" style="shape=mxgraph.flowchart.data;strokeWidth=2;gradientColor=none;gradientDirection=north;fontStyle=0;html=1;" vertex="1" parent="fzGI03qIVP_NEACf6XJV-1">
          <mxGeometry x="240.5" y="130" width="159" height="80" as="geometry" />
        </mxCell>
        <mxCell id="0NoVHgfrJHFiWQeUb7Js-2" style="fontStyle=1;strokeColor=#003366;strokeWidth=1;html=1;" edge="1" parent="fzGI03qIVP_NEACf6XJV-1" source="0NoVHgfrJHFiWQeUb7Js-0" target="0NoVHgfrJHFiWQeUb7Js-1">
          <mxGeometry relative="1" as="geometry" />
        </mxCell>
        <mxCell id="0NoVHgfrJHFiWQeUb7Js-3" style="fontStyle=1;strokeColor=#003366;strokeWidth=1;html=1;entryX=0.5;entryY=0;entryDx=0;entryDy=0;entryPerimeter=0;" edge="1" parent="fzGI03qIVP_NEACf6XJV-1" target="0NoVHgfrJHFiWQeUb7Js-4">
          <mxGeometry relative="1" as="geometry">
            <mxPoint x="312" y="209" as="sourcePoint" />
          </mxGeometry>
        </mxCell>
        <mxCell id="0NoVHgfrJHFiWQeUb7Js-4" value="Valid?" style="shape=mxgraph.flowchart.decision;strokeWidth=2;gradientColor=none;gradientDirection=north;fontStyle=0;html=1;" vertex="1" parent="fzGI03qIVP_NEACf6XJV-1">
          <mxGeometry x="262.5" y="250" width="98" height="57" as="geometry" />
        </mxCell>
        <mxCell id="0NoVHgfrJHFiWQeUb7Js-16" value="Yes" style="edgeStyle=orthogonalEdgeStyle;rounded=0;orthogonalLoop=1;jettySize=auto;html=1;" edge="1" parent="fzGI03qIVP_NEACf6XJV-1" source="0NoVHgfrJHFiWQeUb7Js-5" target="0NoVHgfrJHFiWQeUb7Js-4">
          <mxGeometry relative="1" as="geometry" />
        </mxCell>
        <mxCell id="0NoVHgfrJHFiWQeUb7Js-5" value="Check for Country or &lt;br&gt;States&amp;nbsp;exists" style="shape=mxgraph.flowchart.data;strokeWidth=2;gradientColor=none;gradientDirection=north;fontStyle=0;html=1;" vertex="1" parent="fzGI03qIVP_NEACf6XJV-1">
          <mxGeometry x="230" y="350" width="159" height="80" as="geometry" />
        </mxCell>
        <mxCell id="0NoVHgfrJHFiWQeUb7Js-6" style="fontStyle=1;strokeColor=#003366;strokeWidth=1;html=1;" edge="1" parent="fzGI03qIVP_NEACf6XJV-1">
          <mxGeometry relative="1" as="geometry">
            <mxPoint x="310.5" y="320" as="sourcePoint" />
            <mxPoint x="310.5" y="350" as="targetPoint" />
            <Array as="points">
              <mxPoint x="310.5" y="300" />
              <mxPoint x="310.5" y="320" />
            </Array>
          </mxGeometry>
        </mxCell>
        <mxCell id="0NoVHgfrJHFiWQeUb7Js-7" value="Prensent?" style="shape=mxgraph.flowchart.decision;strokeWidth=2;gradientColor=none;gradientDirection=north;fontStyle=0;html=1;" vertex="1" parent="fzGI03qIVP_NEACf6XJV-1">
          <mxGeometry x="259.5" y="480" width="98" height="57" as="geometry" />
        </mxCell>
        <mxCell id="0NoVHgfrJHFiWQeUb7Js-8" value="Return Response" style="shape=mxgraph.flowchart.data;strokeWidth=2;gradientColor=none;gradientDirection=north;fontStyle=0;html=1;" vertex="1" parent="fzGI03qIVP_NEACf6XJV-1">
          <mxGeometry x="232" y="570" width="159" height="80" as="geometry" />
        </mxCell>
        <mxCell id="0NoVHgfrJHFiWQeUb7Js-9" value="end" style="shape=mxgraph.flowchart.terminator;strokeWidth=2;gradientColor=none;gradientDirection=north;fontStyle=0;html=1;" vertex="1" parent="fzGI03qIVP_NEACf6XJV-1">
          <mxGeometry x="240.5" y="680" width="120" height="30" as="geometry" />
        </mxCell>
        <mxCell id="0NoVHgfrJHFiWQeUb7Js-10" value="" style="endArrow=classic;html=1;exitX=0.456;exitY=0.988;exitDx=0;exitDy=0;exitPerimeter=0;" edge="1" parent="fzGI03qIVP_NEACf6XJV-1" source="0NoVHgfrJHFiWQeUb7Js-8" target="0NoVHgfrJHFiWQeUb7Js-9">
          <mxGeometry width="50" height="50" relative="1" as="geometry">
            <mxPoint x="79.5" y="740" as="sourcePoint" />
            <mxPoint x="129.5" y="690" as="targetPoint" />
          </mxGeometry>
        </mxCell>
        <mxCell id="0NoVHgfrJHFiWQeUb7Js-11" value="" style="endArrow=classic;html=1;exitX=0.5;exitY=1;exitDx=0;exitDy=0;exitPerimeter=0;" edge="1" parent="fzGI03qIVP_NEACf6XJV-1" source="0NoVHgfrJHFiWQeUb7Js-7" target="0NoVHgfrJHFiWQeUb7Js-8">
          <mxGeometry width="50" height="50" relative="1" as="geometry">
            <mxPoint x="379.5" y="770" as="sourcePoint" />
            <mxPoint x="429.5" y="720" as="targetPoint" />
          </mxGeometry>
        </mxCell>
        <mxCell id="0NoVHgfrJHFiWQeUb7Js-18" value="Yes" style="edgeLabel;html=1;align=center;verticalAlign=middle;resizable=0;points=[];" vertex="1" connectable="0" parent="0NoVHgfrJHFiWQeUb7Js-11">
          <mxGeometry x="-0.2072" y="2" relative="1" as="geometry">
            <mxPoint as="offset" />
          </mxGeometry>
        </mxCell>
        <mxCell id="0NoVHgfrJHFiWQeUb7Js-12" value="" style="endArrow=classic;html=1;exitX=0.5;exitY=1;exitDx=0;exitDy=0;exitPerimeter=0;" edge="1" parent="fzGI03qIVP_NEACf6XJV-1" source="0NoVHgfrJHFiWQeUb7Js-5" target="0NoVHgfrJHFiWQeUb7Js-7">
          <mxGeometry width="50" height="50" relative="1" as="geometry">
            <mxPoint x="379.5" y="630" as="sourcePoint" />
            <mxPoint x="429.5" y="580" as="targetPoint" />
          </mxGeometry>
        </mxCell>
        <mxCell id="0NoVHgfrJHFiWQeUb7Js-13" value="" style="endArrow=classic;html=1;exitX=1;exitY=0.5;exitDx=0;exitDy=0;exitPerimeter=0;entryX=1;entryY=0.5;entryDx=0;entryDy=0;entryPerimeter=0;" edge="1" parent="fzGI03qIVP_NEACf6XJV-1" source="0NoVHgfrJHFiWQeUb7Js-4" target="0NoVHgfrJHFiWQeUb7Js-9">
          <mxGeometry width="50" height="50" relative="1" as="geometry">
            <mxPoint x="379.5" y="410" as="sourcePoint" />
            <mxPoint x="569.5" y="680" as="targetPoint" />
            <Array as="points">
              <mxPoint x="579.5" y="279" />
              <mxPoint x="579.5" y="695" />
            </Array>
          </mxGeometry>
        </mxCell>
        <mxCell id="0NoVHgfrJHFiWQeUb7Js-15" value="No" style="edgeLabel;html=1;align=center;verticalAlign=middle;resizable=0;points=[];" vertex="1" connectable="0" parent="0NoVHgfrJHFiWQeUb7Js-13">
          <mxGeometry x="-0.8607" y="3" relative="1" as="geometry">
            <mxPoint as="offset" />
          </mxGeometry>
        </mxCell>
        <mxCell id="0NoVHgfrJHFiWQeUb7Js-14" value="" style="endArrow=classic;html=1;exitX=1;exitY=0.5;exitDx=0;exitDy=0;exitPerimeter=0;entryX=0.89;entryY=0.11;entryDx=0;entryDy=0;entryPerimeter=0;" edge="1" parent="fzGI03qIVP_NEACf6XJV-1" source="0NoVHgfrJHFiWQeUb7Js-7" target="0NoVHgfrJHFiWQeUb7Js-9">
          <mxGeometry width="50" height="50" relative="1" as="geometry">
            <mxPoint x="379.5" y="480" as="sourcePoint" />
            <mxPoint x="357.5" y="683" as="targetPoint" />
            <Array as="points">
              <mxPoint x="519.5" y="509" />
              <mxPoint x="519.5" y="683" />
            </Array>
          </mxGeometry>
        </mxCell>
        <mxCell id="0NoVHgfrJHFiWQeUb7Js-17" value="No" style="edgeLabel;html=1;align=center;verticalAlign=middle;resizable=0;points=[];" vertex="1" connectable="0" parent="0NoVHgfrJHFiWQeUb7Js-14">
          <mxGeometry x="-0.7698" y="5" relative="1" as="geometry">
            <mxPoint as="offset" />
          </mxGeometry>
        </mxCell>
      </root>
    </mxGraphModel>
  </diagram>
  <diagram id="KJVALSEgf_TUFqaKLxQC" name="Country Verticals">
    <mxGraphModel dx="1186" dy="671" grid="1" gridSize="10" guides="1" tooltips="1" connect="1" arrows="1" fold="1" page="1" pageScale="1" pageWidth="850" pageHeight="1100" math="0" shadow="0">
      <root>
        <mxCell id="Y4u-nvjz1eVGYEaNJ9f5-0" />
        <mxCell id="Y4u-nvjz1eVGYEaNJ9f5-1" parent="Y4u-nvjz1eVGYEaNJ9f5-0" />
        <mxCell id="XmVO_7JC2rIAhHwGp5gn-0" value="start" style="shape=mxgraph.flowchart.terminator;strokeWidth=2;gradientColor=none;gradientDirection=north;fontStyle=0;html=1;" vertex="1" parent="Y4u-nvjz1eVGYEaNJ9f5-1">
          <mxGeometry x="260" y="60" width="120" height="30" as="geometry" />
        </mxCell>
        <mxCell id="XmVO_7JC2rIAhHwGp5gn-1" value="Check for validity of&lt;br&gt;&amp;nbsp;Authorization token" style="shape=mxgraph.flowchart.data;strokeWidth=2;gradientColor=none;gradientDirection=north;fontStyle=0;html=1;" vertex="1" parent="Y4u-nvjz1eVGYEaNJ9f5-1">
          <mxGeometry x="240.5" y="130" width="159" height="80" as="geometry" />
        </mxCell>
        <mxCell id="XmVO_7JC2rIAhHwGp5gn-2" style="fontStyle=1;strokeColor=#003366;strokeWidth=1;html=1;" edge="1" parent="Y4u-nvjz1eVGYEaNJ9f5-1" source="XmVO_7JC2rIAhHwGp5gn-0" target="XmVO_7JC2rIAhHwGp5gn-1">
          <mxGeometry relative="1" as="geometry" />
        </mxCell>
        <mxCell id="XmVO_7JC2rIAhHwGp5gn-3" style="fontStyle=1;strokeColor=#003366;strokeWidth=1;html=1;entryX=0.5;entryY=0;entryDx=0;entryDy=0;entryPerimeter=0;" edge="1" parent="Y4u-nvjz1eVGYEaNJ9f5-1" target="XmVO_7JC2rIAhHwGp5gn-4">
          <mxGeometry relative="1" as="geometry">
            <mxPoint x="312" y="209" as="sourcePoint" />
          </mxGeometry>
        </mxCell>
        <mxCell id="XmVO_7JC2rIAhHwGp5gn-4" value="Valid?" style="shape=mxgraph.flowchart.decision;strokeWidth=2;gradientColor=none;gradientDirection=north;fontStyle=0;html=1;" vertex="1" parent="Y4u-nvjz1eVGYEaNJ9f5-1">
          <mxGeometry x="262.5" y="250" width="98" height="57" as="geometry" />
        </mxCell>
        <mxCell id="XmVO_7JC2rIAhHwGp5gn-5" value="Yes" style="edgeStyle=orthogonalEdgeStyle;rounded=0;orthogonalLoop=1;jettySize=auto;html=1;" edge="1" parent="Y4u-nvjz1eVGYEaNJ9f5-1" source="XmVO_7JC2rIAhHwGp5gn-6" target="XmVO_7JC2rIAhHwGp5gn-4">
          <mxGeometry relative="1" as="geometry" />
        </mxCell>
        <mxCell id="XmVO_7JC2rIAhHwGp5gn-6" value="Check for Country&lt;br&gt;Verticals exists" style="shape=mxgraph.flowchart.data;strokeWidth=2;gradientColor=none;gradientDirection=north;fontStyle=0;html=1;" vertex="1" parent="Y4u-nvjz1eVGYEaNJ9f5-1">
          <mxGeometry x="230" y="350" width="159" height="80" as="geometry" />
        </mxCell>
        <mxCell id="XmVO_7JC2rIAhHwGp5gn-7" style="fontStyle=1;strokeColor=#003366;strokeWidth=1;html=1;" edge="1" parent="Y4u-nvjz1eVGYEaNJ9f5-1">
          <mxGeometry relative="1" as="geometry">
            <mxPoint x="310.5" y="320" as="sourcePoint" />
            <mxPoint x="310.5" y="350" as="targetPoint" />
            <Array as="points">
              <mxPoint x="310.5" y="300" />
              <mxPoint x="310.5" y="320" />
            </Array>
          </mxGeometry>
        </mxCell>
        <mxCell id="XmVO_7JC2rIAhHwGp5gn-8" value="Prensent?" style="shape=mxgraph.flowchart.decision;strokeWidth=2;gradientColor=none;gradientDirection=north;fontStyle=0;html=1;" vertex="1" parent="Y4u-nvjz1eVGYEaNJ9f5-1">
          <mxGeometry x="259.5" y="480" width="98" height="57" as="geometry" />
        </mxCell>
        <mxCell id="XmVO_7JC2rIAhHwGp5gn-9" value="Return Response" style="shape=mxgraph.flowchart.data;strokeWidth=2;gradientColor=none;gradientDirection=north;fontStyle=0;html=1;" vertex="1" parent="Y4u-nvjz1eVGYEaNJ9f5-1">
          <mxGeometry x="232" y="570" width="159" height="80" as="geometry" />
        </mxCell>
        <mxCell id="XmVO_7JC2rIAhHwGp5gn-10" value="end" style="shape=mxgraph.flowchart.terminator;strokeWidth=2;gradientColor=none;gradientDirection=north;fontStyle=0;html=1;" vertex="1" parent="Y4u-nvjz1eVGYEaNJ9f5-1">
          <mxGeometry x="240.5" y="680" width="120" height="30" as="geometry" />
        </mxCell>
        <mxCell id="XmVO_7JC2rIAhHwGp5gn-11" value="" style="endArrow=classic;html=1;exitX=0.456;exitY=0.988;exitDx=0;exitDy=0;exitPerimeter=0;" edge="1" parent="Y4u-nvjz1eVGYEaNJ9f5-1" source="XmVO_7JC2rIAhHwGp5gn-9" target="XmVO_7JC2rIAhHwGp5gn-10">
          <mxGeometry width="50" height="50" relative="1" as="geometry">
            <mxPoint x="79.5" y="740" as="sourcePoint" />
            <mxPoint x="129.5" y="690" as="targetPoint" />
          </mxGeometry>
        </mxCell>
        <mxCell id="XmVO_7JC2rIAhHwGp5gn-12" value="" style="endArrow=classic;html=1;exitX=0.5;exitY=1;exitDx=0;exitDy=0;exitPerimeter=0;" edge="1" parent="Y4u-nvjz1eVGYEaNJ9f5-1" source="XmVO_7JC2rIAhHwGp5gn-8" target="XmVO_7JC2rIAhHwGp5gn-9">
          <mxGeometry width="50" height="50" relative="1" as="geometry">
            <mxPoint x="379.5" y="770" as="sourcePoint" />
            <mxPoint x="429.5" y="720" as="targetPoint" />
          </mxGeometry>
        </mxCell>
        <mxCell id="XmVO_7JC2rIAhHwGp5gn-13" value="Yes" style="edgeLabel;html=1;align=center;verticalAlign=middle;resizable=0;points=[];" vertex="1" connectable="0" parent="XmVO_7JC2rIAhHwGp5gn-12">
          <mxGeometry x="-0.2072" y="2" relative="1" as="geometry">
            <mxPoint as="offset" />
          </mxGeometry>
        </mxCell>
        <mxCell id="XmVO_7JC2rIAhHwGp5gn-14" value="" style="endArrow=classic;html=1;exitX=0.5;exitY=1;exitDx=0;exitDy=0;exitPerimeter=0;" edge="1" parent="Y4u-nvjz1eVGYEaNJ9f5-1" source="XmVO_7JC2rIAhHwGp5gn-6" target="XmVO_7JC2rIAhHwGp5gn-8">
          <mxGeometry width="50" height="50" relative="1" as="geometry">
            <mxPoint x="379.5" y="630" as="sourcePoint" />
            <mxPoint x="429.5" y="580" as="targetPoint" />
          </mxGeometry>
        </mxCell>
        <mxCell id="XmVO_7JC2rIAhHwGp5gn-15" value="" style="endArrow=classic;html=1;exitX=1;exitY=0.5;exitDx=0;exitDy=0;exitPerimeter=0;entryX=1;entryY=0.5;entryDx=0;entryDy=0;entryPerimeter=0;" edge="1" parent="Y4u-nvjz1eVGYEaNJ9f5-1" source="XmVO_7JC2rIAhHwGp5gn-4" target="XmVO_7JC2rIAhHwGp5gn-10">
          <mxGeometry width="50" height="50" relative="1" as="geometry">
            <mxPoint x="379.5" y="410" as="sourcePoint" />
            <mxPoint x="569.5" y="680" as="targetPoint" />
            <Array as="points">
              <mxPoint x="579.5" y="279" />
              <mxPoint x="579.5" y="695" />
            </Array>
          </mxGeometry>
        </mxCell>
        <mxCell id="XmVO_7JC2rIAhHwGp5gn-16" value="No" style="edgeLabel;html=1;align=center;verticalAlign=middle;resizable=0;points=[];" vertex="1" connectable="0" parent="XmVO_7JC2rIAhHwGp5gn-15">
          <mxGeometry x="-0.8607" y="3" relative="1" as="geometry">
            <mxPoint as="offset" />
          </mxGeometry>
        </mxCell>
        <mxCell id="XmVO_7JC2rIAhHwGp5gn-17" value="" style="endArrow=classic;html=1;exitX=1;exitY=0.5;exitDx=0;exitDy=0;exitPerimeter=0;entryX=0.89;entryY=0.11;entryDx=0;entryDy=0;entryPerimeter=0;" edge="1" parent="Y4u-nvjz1eVGYEaNJ9f5-1" source="XmVO_7JC2rIAhHwGp5gn-8" target="XmVO_7JC2rIAhHwGp5gn-10">
          <mxGeometry width="50" height="50" relative="1" as="geometry">
            <mxPoint x="379.5" y="480" as="sourcePoint" />
            <mxPoint x="357.5" y="683" as="targetPoint" />
            <Array as="points">
              <mxPoint x="519.5" y="509" />
              <mxPoint x="519.5" y="683" />
            </Array>
          </mxGeometry>
        </mxCell>
        <mxCell id="XmVO_7JC2rIAhHwGp5gn-18" value="No" style="edgeLabel;html=1;align=center;verticalAlign=middle;resizable=0;points=[];" vertex="1" connectable="0" parent="XmVO_7JC2rIAhHwGp5gn-17">
          <mxGeometry x="-0.7698" y="5" relative="1" as="geometry">
            <mxPoint as="offset" />
          </mxGeometry>
        </mxCell>
      </root>
    </mxGraphModel>
  </diagram>
  <diagram id="p8EsGL7zXedWkuK8_aaC" name="Email Templates">
    <mxGraphModel dx="1186" dy="671" grid="1" gridSize="10" guides="1" tooltips="1" connect="1" arrows="1" fold="1" page="1" pageScale="1" pageWidth="850" pageHeight="1100" math="0" shadow="0">
      <root>
        <mxCell id="w0N-ORCM0ecLxGNCIRst-0" />
        <mxCell id="w0N-ORCM0ecLxGNCIRst-1" parent="w0N-ORCM0ecLxGNCIRst-0" />
        <mxCell id="e_Ze2awfaYmn8_V61fF6-0" value="start" style="shape=mxgraph.flowchart.terminator;strokeWidth=2;gradientColor=none;gradientDirection=north;fontStyle=0;html=1;" vertex="1" parent="w0N-ORCM0ecLxGNCIRst-1">
          <mxGeometry x="260" y="60" width="120" height="30" as="geometry" />
        </mxCell>
        <mxCell id="e_Ze2awfaYmn8_V61fF6-1" value="Check for validity of&lt;br&gt;&amp;nbsp;Authorization token" style="shape=mxgraph.flowchart.data;strokeWidth=2;gradientColor=none;gradientDirection=north;fontStyle=0;html=1;" vertex="1" parent="w0N-ORCM0ecLxGNCIRst-1">
          <mxGeometry x="240.5" y="130" width="159" height="80" as="geometry" />
        </mxCell>
        <mxCell id="e_Ze2awfaYmn8_V61fF6-2" style="fontStyle=1;strokeColor=#003366;strokeWidth=1;html=1;" edge="1" parent="w0N-ORCM0ecLxGNCIRst-1" source="e_Ze2awfaYmn8_V61fF6-0" target="e_Ze2awfaYmn8_V61fF6-1">
          <mxGeometry relative="1" as="geometry" />
        </mxCell>
        <mxCell id="e_Ze2awfaYmn8_V61fF6-3" style="fontStyle=1;strokeColor=#003366;strokeWidth=1;html=1;entryX=0.5;entryY=0;entryDx=0;entryDy=0;entryPerimeter=0;" edge="1" parent="w0N-ORCM0ecLxGNCIRst-1" target="e_Ze2awfaYmn8_V61fF6-4">
          <mxGeometry relative="1" as="geometry">
            <mxPoint x="312" y="209" as="sourcePoint" />
          </mxGeometry>
        </mxCell>
        <mxCell id="e_Ze2awfaYmn8_V61fF6-4" value="Valid?" style="shape=mxgraph.flowchart.decision;strokeWidth=2;gradientColor=none;gradientDirection=north;fontStyle=0;html=1;" vertex="1" parent="w0N-ORCM0ecLxGNCIRst-1">
          <mxGeometry x="262.5" y="250" width="98" height="57" as="geometry" />
        </mxCell>
        <mxCell id="e_Ze2awfaYmn8_V61fF6-5" value="Yes" style="edgeStyle=orthogonalEdgeStyle;rounded=0;orthogonalLoop=1;jettySize=auto;html=1;" edge="1" parent="w0N-ORCM0ecLxGNCIRst-1" source="e_Ze2awfaYmn8_V61fF6-6" target="e_Ze2awfaYmn8_V61fF6-4">
          <mxGeometry relative="1" as="geometry" />
        </mxCell>
        <mxCell id="e_Ze2awfaYmn8_V61fF6-6" value="Check for Email &lt;br&gt;Templates&amp;nbsp;exists" style="shape=mxgraph.flowchart.data;strokeWidth=2;gradientColor=none;gradientDirection=north;fontStyle=0;html=1;" vertex="1" parent="w0N-ORCM0ecLxGNCIRst-1">
          <mxGeometry x="230" y="350" width="159" height="80" as="geometry" />
        </mxCell>
        <mxCell id="e_Ze2awfaYmn8_V61fF6-7" style="fontStyle=1;strokeColor=#003366;strokeWidth=1;html=1;" edge="1" parent="w0N-ORCM0ecLxGNCIRst-1">
          <mxGeometry relative="1" as="geometry">
            <mxPoint x="310.5" y="320" as="sourcePoint" />
            <mxPoint x="310.5" y="350" as="targetPoint" />
            <Array as="points">
              <mxPoint x="310.5" y="300" />
              <mxPoint x="310.5" y="320" />
            </Array>
          </mxGeometry>
        </mxCell>
        <mxCell id="e_Ze2awfaYmn8_V61fF6-8" value="Prensent?" style="shape=mxgraph.flowchart.decision;strokeWidth=2;gradientColor=none;gradientDirection=north;fontStyle=0;html=1;" vertex="1" parent="w0N-ORCM0ecLxGNCIRst-1">
          <mxGeometry x="259.5" y="480" width="98" height="57" as="geometry" />
        </mxCell>
        <mxCell id="e_Ze2awfaYmn8_V61fF6-9" value="Return Response" style="shape=mxgraph.flowchart.data;strokeWidth=2;gradientColor=none;gradientDirection=north;fontStyle=0;html=1;" vertex="1" parent="w0N-ORCM0ecLxGNCIRst-1">
          <mxGeometry x="232" y="570" width="159" height="80" as="geometry" />
        </mxCell>
        <mxCell id="e_Ze2awfaYmn8_V61fF6-10" value="end" style="shape=mxgraph.flowchart.terminator;strokeWidth=2;gradientColor=none;gradientDirection=north;fontStyle=0;html=1;" vertex="1" parent="w0N-ORCM0ecLxGNCIRst-1">
          <mxGeometry x="240.5" y="680" width="120" height="30" as="geometry" />
        </mxCell>
        <mxCell id="e_Ze2awfaYmn8_V61fF6-11" value="" style="endArrow=classic;html=1;exitX=0.456;exitY=0.988;exitDx=0;exitDy=0;exitPerimeter=0;" edge="1" parent="w0N-ORCM0ecLxGNCIRst-1" source="e_Ze2awfaYmn8_V61fF6-9" target="e_Ze2awfaYmn8_V61fF6-10">
          <mxGeometry width="50" height="50" relative="1" as="geometry">
            <mxPoint x="79.5" y="740" as="sourcePoint" />
            <mxPoint x="129.5" y="690" as="targetPoint" />
          </mxGeometry>
        </mxCell>
        <mxCell id="e_Ze2awfaYmn8_V61fF6-12" value="" style="endArrow=classic;html=1;exitX=0.5;exitY=1;exitDx=0;exitDy=0;exitPerimeter=0;" edge="1" parent="w0N-ORCM0ecLxGNCIRst-1" source="e_Ze2awfaYmn8_V61fF6-8" target="e_Ze2awfaYmn8_V61fF6-9">
          <mxGeometry width="50" height="50" relative="1" as="geometry">
            <mxPoint x="379.5" y="770" as="sourcePoint" />
            <mxPoint x="429.5" y="720" as="targetPoint" />
          </mxGeometry>
        </mxCell>
        <mxCell id="e_Ze2awfaYmn8_V61fF6-13" value="Yes" style="edgeLabel;html=1;align=center;verticalAlign=middle;resizable=0;points=[];" vertex="1" connectable="0" parent="e_Ze2awfaYmn8_V61fF6-12">
          <mxGeometry x="-0.2072" y="2" relative="1" as="geometry">
            <mxPoint as="offset" />
          </mxGeometry>
        </mxCell>
        <mxCell id="e_Ze2awfaYmn8_V61fF6-14" value="" style="endArrow=classic;html=1;exitX=0.5;exitY=1;exitDx=0;exitDy=0;exitPerimeter=0;" edge="1" parent="w0N-ORCM0ecLxGNCIRst-1" source="e_Ze2awfaYmn8_V61fF6-6" target="e_Ze2awfaYmn8_V61fF6-8">
          <mxGeometry width="50" height="50" relative="1" as="geometry">
            <mxPoint x="379.5" y="630" as="sourcePoint" />
            <mxPoint x="429.5" y="580" as="targetPoint" />
          </mxGeometry>
        </mxCell>
        <mxCell id="e_Ze2awfaYmn8_V61fF6-15" value="" style="endArrow=classic;html=1;exitX=1;exitY=0.5;exitDx=0;exitDy=0;exitPerimeter=0;entryX=1;entryY=0.5;entryDx=0;entryDy=0;entryPerimeter=0;" edge="1" parent="w0N-ORCM0ecLxGNCIRst-1" source="e_Ze2awfaYmn8_V61fF6-4" target="e_Ze2awfaYmn8_V61fF6-10">
          <mxGeometry width="50" height="50" relative="1" as="geometry">
            <mxPoint x="379.5" y="410" as="sourcePoint" />
            <mxPoint x="569.5" y="680" as="targetPoint" />
            <Array as="points">
              <mxPoint x="579.5" y="279" />
              <mxPoint x="579.5" y="695" />
            </Array>
          </mxGeometry>
        </mxCell>
        <mxCell id="e_Ze2awfaYmn8_V61fF6-16" value="No" style="edgeLabel;html=1;align=center;verticalAlign=middle;resizable=0;points=[];" vertex="1" connectable="0" parent="e_Ze2awfaYmn8_V61fF6-15">
          <mxGeometry x="-0.8607" y="3" relative="1" as="geometry">
            <mxPoint as="offset" />
          </mxGeometry>
        </mxCell>
        <mxCell id="e_Ze2awfaYmn8_V61fF6-17" value="" style="endArrow=classic;html=1;exitX=1;exitY=0.5;exitDx=0;exitDy=0;exitPerimeter=0;entryX=0.89;entryY=0.11;entryDx=0;entryDy=0;entryPerimeter=0;" edge="1" parent="w0N-ORCM0ecLxGNCIRst-1" source="e_Ze2awfaYmn8_V61fF6-8" target="e_Ze2awfaYmn8_V61fF6-10">
          <mxGeometry width="50" height="50" relative="1" as="geometry">
            <mxPoint x="379.5" y="480" as="sourcePoint" />
            <mxPoint x="357.5" y="683" as="targetPoint" />
            <Array as="points">
              <mxPoint x="519.5" y="509" />
              <mxPoint x="519.5" y="683" />
            </Array>
          </mxGeometry>
        </mxCell>
        <mxCell id="e_Ze2awfaYmn8_V61fF6-18" value="No" style="edgeLabel;html=1;align=center;verticalAlign=middle;resizable=0;points=[];" vertex="1" connectable="0" parent="e_Ze2awfaYmn8_V61fF6-17">
          <mxGeometry x="-0.7698" y="5" relative="1" as="geometry">
            <mxPoint as="offset" />
          </mxGeometry>
        </mxCell>
      </root>
    </mxGraphModel>
  </diagram>
  <diagram id="evtEf2gndYrKT9oTG-AL" name="Express Stores">
    <mxGraphModel dx="1186" dy="671" grid="1" gridSize="10" guides="1" tooltips="1" connect="1" arrows="1" fold="1" page="1" pageScale="1" pageWidth="850" pageHeight="1100" math="0" shadow="0">
      <root>
        <mxCell id="kInX2iWHTHZhbbQb8Ec4-0" />
        <mxCell id="kInX2iWHTHZhbbQb8Ec4-1" parent="kInX2iWHTHZhbbQb8Ec4-0" />
        <mxCell id="84o6nWYLO0exVysKgz-h-0" value="start" style="shape=mxgraph.flowchart.terminator;strokeWidth=2;gradientColor=none;gradientDirection=north;fontStyle=0;html=1;" vertex="1" parent="kInX2iWHTHZhbbQb8Ec4-1">
          <mxGeometry x="260" y="60" width="120" height="30" as="geometry" />
        </mxCell>
        <mxCell id="84o6nWYLO0exVysKgz-h-1" value="Check for validity of&lt;br&gt;&amp;nbsp;Authorization token" style="shape=mxgraph.flowchart.data;strokeWidth=2;gradientColor=none;gradientDirection=north;fontStyle=0;html=1;" vertex="1" parent="kInX2iWHTHZhbbQb8Ec4-1">
          <mxGeometry x="240.5" y="130" width="159" height="80" as="geometry" />
        </mxCell>
        <mxCell id="84o6nWYLO0exVysKgz-h-2" style="fontStyle=1;strokeColor=#003366;strokeWidth=1;html=1;" edge="1" parent="kInX2iWHTHZhbbQb8Ec4-1" source="84o6nWYLO0exVysKgz-h-0" target="84o6nWYLO0exVysKgz-h-1">
          <mxGeometry relative="1" as="geometry" />
        </mxCell>
        <mxCell id="84o6nWYLO0exVysKgz-h-3" style="fontStyle=1;strokeColor=#003366;strokeWidth=1;html=1;entryX=0.5;entryY=0;entryDx=0;entryDy=0;entryPerimeter=0;" edge="1" parent="kInX2iWHTHZhbbQb8Ec4-1" target="84o6nWYLO0exVysKgz-h-4">
          <mxGeometry relative="1" as="geometry">
            <mxPoint x="312" y="209" as="sourcePoint" />
          </mxGeometry>
        </mxCell>
        <mxCell id="84o6nWYLO0exVysKgz-h-4" value="Valid?" style="shape=mxgraph.flowchart.decision;strokeWidth=2;gradientColor=none;gradientDirection=north;fontStyle=0;html=1;" vertex="1" parent="kInX2iWHTHZhbbQb8Ec4-1">
          <mxGeometry x="262.5" y="250" width="98" height="57" as="geometry" />
        </mxCell>
        <mxCell id="84o6nWYLO0exVysKgz-h-5" value="Yes" style="edgeStyle=orthogonalEdgeStyle;rounded=0;orthogonalLoop=1;jettySize=auto;html=1;" edge="1" parent="kInX2iWHTHZhbbQb8Ec4-1" source="84o6nWYLO0exVysKgz-h-6" target="84o6nWYLO0exVysKgz-h-4">
          <mxGeometry relative="1" as="geometry" />
        </mxCell>
        <mxCell id="84o6nWYLO0exVysKgz-h-6" value="Check for Express &lt;br&gt;Stores exists" style="shape=mxgraph.flowchart.data;strokeWidth=2;gradientColor=none;gradientDirection=north;fontStyle=0;html=1;" vertex="1" parent="kInX2iWHTHZhbbQb8Ec4-1">
          <mxGeometry x="230" y="350" width="159" height="80" as="geometry" />
        </mxCell>
        <mxCell id="84o6nWYLO0exVysKgz-h-7" style="fontStyle=1;strokeColor=#003366;strokeWidth=1;html=1;" edge="1" parent="kInX2iWHTHZhbbQb8Ec4-1">
          <mxGeometry relative="1" as="geometry">
            <mxPoint x="310.5" y="320" as="sourcePoint" />
            <mxPoint x="310.5" y="350" as="targetPoint" />
            <Array as="points">
              <mxPoint x="310.5" y="300" />
              <mxPoint x="310.5" y="320" />
            </Array>
          </mxGeometry>
        </mxCell>
        <mxCell id="84o6nWYLO0exVysKgz-h-8" value="Prensent?" style="shape=mxgraph.flowchart.decision;strokeWidth=2;gradientColor=none;gradientDirection=north;fontStyle=0;html=1;" vertex="1" parent="kInX2iWHTHZhbbQb8Ec4-1">
          <mxGeometry x="259.5" y="480" width="98" height="57" as="geometry" />
        </mxCell>
        <mxCell id="84o6nWYLO0exVysKgz-h-9" value="Return Response" style="shape=mxgraph.flowchart.data;strokeWidth=2;gradientColor=none;gradientDirection=north;fontStyle=0;html=1;" vertex="1" parent="kInX2iWHTHZhbbQb8Ec4-1">
          <mxGeometry x="232" y="570" width="159" height="80" as="geometry" />
        </mxCell>
        <mxCell id="84o6nWYLO0exVysKgz-h-10" value="end" style="shape=mxgraph.flowchart.terminator;strokeWidth=2;gradientColor=none;gradientDirection=north;fontStyle=0;html=1;" vertex="1" parent="kInX2iWHTHZhbbQb8Ec4-1">
          <mxGeometry x="240.5" y="680" width="120" height="30" as="geometry" />
        </mxCell>
        <mxCell id="84o6nWYLO0exVysKgz-h-11" value="" style="endArrow=classic;html=1;exitX=0.456;exitY=0.988;exitDx=0;exitDy=0;exitPerimeter=0;" edge="1" parent="kInX2iWHTHZhbbQb8Ec4-1" source="84o6nWYLO0exVysKgz-h-9" target="84o6nWYLO0exVysKgz-h-10">
          <mxGeometry width="50" height="50" relative="1" as="geometry">
            <mxPoint x="79.5" y="740" as="sourcePoint" />
            <mxPoint x="129.5" y="690" as="targetPoint" />
          </mxGeometry>
        </mxCell>
        <mxCell id="84o6nWYLO0exVysKgz-h-12" value="" style="endArrow=classic;html=1;exitX=0.5;exitY=1;exitDx=0;exitDy=0;exitPerimeter=0;" edge="1" parent="kInX2iWHTHZhbbQb8Ec4-1" source="84o6nWYLO0exVysKgz-h-8" target="84o6nWYLO0exVysKgz-h-9">
          <mxGeometry width="50" height="50" relative="1" as="geometry">
            <mxPoint x="379.5" y="770" as="sourcePoint" />
            <mxPoint x="429.5" y="720" as="targetPoint" />
          </mxGeometry>
        </mxCell>
        <mxCell id="84o6nWYLO0exVysKgz-h-13" value="Yes" style="edgeLabel;html=1;align=center;verticalAlign=middle;resizable=0;points=[];" vertex="1" connectable="0" parent="84o6nWYLO0exVysKgz-h-12">
          <mxGeometry x="-0.2072" y="2" relative="1" as="geometry">
            <mxPoint as="offset" />
          </mxGeometry>
        </mxCell>
        <mxCell id="84o6nWYLO0exVysKgz-h-14" value="" style="endArrow=classic;html=1;exitX=0.5;exitY=1;exitDx=0;exitDy=0;exitPerimeter=0;" edge="1" parent="kInX2iWHTHZhbbQb8Ec4-1" source="84o6nWYLO0exVysKgz-h-6" target="84o6nWYLO0exVysKgz-h-8">
          <mxGeometry width="50" height="50" relative="1" as="geometry">
            <mxPoint x="379.5" y="630" as="sourcePoint" />
            <mxPoint x="429.5" y="580" as="targetPoint" />
          </mxGeometry>
        </mxCell>
        <mxCell id="84o6nWYLO0exVysKgz-h-15" value="" style="endArrow=classic;html=1;exitX=1;exitY=0.5;exitDx=0;exitDy=0;exitPerimeter=0;entryX=1;entryY=0.5;entryDx=0;entryDy=0;entryPerimeter=0;" edge="1" parent="kInX2iWHTHZhbbQb8Ec4-1" source="84o6nWYLO0exVysKgz-h-4" target="84o6nWYLO0exVysKgz-h-10">
          <mxGeometry width="50" height="50" relative="1" as="geometry">
            <mxPoint x="379.5" y="410" as="sourcePoint" />
            <mxPoint x="569.5" y="680" as="targetPoint" />
            <Array as="points">
              <mxPoint x="579.5" y="279" />
              <mxPoint x="579.5" y="695" />
            </Array>
          </mxGeometry>
        </mxCell>
        <mxCell id="84o6nWYLO0exVysKgz-h-16" value="No" style="edgeLabel;html=1;align=center;verticalAlign=middle;resizable=0;points=[];" vertex="1" connectable="0" parent="84o6nWYLO0exVysKgz-h-15">
          <mxGeometry x="-0.8607" y="3" relative="1" as="geometry">
            <mxPoint as="offset" />
          </mxGeometry>
        </mxCell>
        <mxCell id="84o6nWYLO0exVysKgz-h-17" value="" style="endArrow=classic;html=1;exitX=1;exitY=0.5;exitDx=0;exitDy=0;exitPerimeter=0;entryX=0.89;entryY=0.11;entryDx=0;entryDy=0;entryPerimeter=0;" edge="1" parent="kInX2iWHTHZhbbQb8Ec4-1" source="84o6nWYLO0exVysKgz-h-8" target="84o6nWYLO0exVysKgz-h-10">
          <mxGeometry width="50" height="50" relative="1" as="geometry">
            <mxPoint x="379.5" y="480" as="sourcePoint" />
            <mxPoint x="357.5" y="683" as="targetPoint" />
            <Array as="points">
              <mxPoint x="519.5" y="509" />
              <mxPoint x="519.5" y="683" />
            </Array>
          </mxGeometry>
        </mxCell>
        <mxCell id="84o6nWYLO0exVysKgz-h-18" value="No" style="edgeLabel;html=1;align=center;verticalAlign=middle;resizable=0;points=[];" vertex="1" connectable="0" parent="84o6nWYLO0exVysKgz-h-17">
          <mxGeometry x="-0.7698" y="5" relative="1" as="geometry">
            <mxPoint as="offset" />
          </mxGeometry>
        </mxCell>
      </root>
    </mxGraphModel>
  </diagram>
  <diagram id="iJfc3xyF8RfSLx_sCIDd" name="Holidays List">
    <mxGraphModel dx="1186" dy="671" grid="1" gridSize="10" guides="1" tooltips="1" connect="1" arrows="1" fold="1" page="1" pageScale="1" pageWidth="850" pageHeight="1100" math="0" shadow="0">
      <root>
        <mxCell id="W4uiLEeoLuCb4RiQdhrC-0" />
        <mxCell id="W4uiLEeoLuCb4RiQdhrC-1" parent="W4uiLEeoLuCb4RiQdhrC-0" />
        <mxCell id="5jOQ8ZJGuLPBJwibekyH-0" value="start" style="shape=mxgraph.flowchart.terminator;strokeWidth=2;gradientColor=none;gradientDirection=north;fontStyle=0;html=1;" vertex="1" parent="W4uiLEeoLuCb4RiQdhrC-1">
          <mxGeometry x="260" y="60" width="120" height="30" as="geometry" />
        </mxCell>
        <mxCell id="5jOQ8ZJGuLPBJwibekyH-1" value="Check for validity of&lt;br&gt;&amp;nbsp;Authorization token" style="shape=mxgraph.flowchart.data;strokeWidth=2;gradientColor=none;gradientDirection=north;fontStyle=0;html=1;" vertex="1" parent="W4uiLEeoLuCb4RiQdhrC-1">
          <mxGeometry x="240.5" y="130" width="159" height="80" as="geometry" />
        </mxCell>
        <mxCell id="5jOQ8ZJGuLPBJwibekyH-2" style="fontStyle=1;strokeColor=#003366;strokeWidth=1;html=1;" edge="1" parent="W4uiLEeoLuCb4RiQdhrC-1" source="5jOQ8ZJGuLPBJwibekyH-0" target="5jOQ8ZJGuLPBJwibekyH-1">
          <mxGeometry relative="1" as="geometry" />
        </mxCell>
        <mxCell id="5jOQ8ZJGuLPBJwibekyH-3" style="fontStyle=1;strokeColor=#003366;strokeWidth=1;html=1;entryX=0.5;entryY=0;entryDx=0;entryDy=0;entryPerimeter=0;" edge="1" parent="W4uiLEeoLuCb4RiQdhrC-1" target="5jOQ8ZJGuLPBJwibekyH-4">
          <mxGeometry relative="1" as="geometry">
            <mxPoint x="312" y="209" as="sourcePoint" />
          </mxGeometry>
        </mxCell>
        <mxCell id="5jOQ8ZJGuLPBJwibekyH-4" value="Valid?" style="shape=mxgraph.flowchart.decision;strokeWidth=2;gradientColor=none;gradientDirection=north;fontStyle=0;html=1;" vertex="1" parent="W4uiLEeoLuCb4RiQdhrC-1">
          <mxGeometry x="262.5" y="250" width="98" height="57" as="geometry" />
        </mxCell>
        <mxCell id="5jOQ8ZJGuLPBJwibekyH-5" value="Yes" style="edgeStyle=orthogonalEdgeStyle;rounded=0;orthogonalLoop=1;jettySize=auto;html=1;" edge="1" parent="W4uiLEeoLuCb4RiQdhrC-1" source="5jOQ8ZJGuLPBJwibekyH-6" target="5jOQ8ZJGuLPBJwibekyH-4">
          <mxGeometry relative="1" as="geometry" />
        </mxCell>
        <mxCell id="5jOQ8ZJGuLPBJwibekyH-6" value="Check for holiday&amp;nbsp;exists" style="shape=mxgraph.flowchart.data;strokeWidth=2;gradientColor=none;gradientDirection=north;fontStyle=0;html=1;" vertex="1" parent="W4uiLEeoLuCb4RiQdhrC-1">
          <mxGeometry x="230" y="350" width="159" height="80" as="geometry" />
        </mxCell>
        <mxCell id="5jOQ8ZJGuLPBJwibekyH-7" style="fontStyle=1;strokeColor=#003366;strokeWidth=1;html=1;" edge="1" parent="W4uiLEeoLuCb4RiQdhrC-1">
          <mxGeometry relative="1" as="geometry">
            <mxPoint x="310.5" y="320" as="sourcePoint" />
            <mxPoint x="310.5" y="350" as="targetPoint" />
            <Array as="points">
              <mxPoint x="310.5" y="300" />
              <mxPoint x="310.5" y="320" />
            </Array>
          </mxGeometry>
        </mxCell>
        <mxCell id="5jOQ8ZJGuLPBJwibekyH-8" value="Prensent?" style="shape=mxgraph.flowchart.decision;strokeWidth=2;gradientColor=none;gradientDirection=north;fontStyle=0;html=1;" vertex="1" parent="W4uiLEeoLuCb4RiQdhrC-1">
          <mxGeometry x="259.5" y="480" width="98" height="57" as="geometry" />
        </mxCell>
        <mxCell id="5jOQ8ZJGuLPBJwibekyH-9" value="Return Response" style="shape=mxgraph.flowchart.data;strokeWidth=2;gradientColor=none;gradientDirection=north;fontStyle=0;html=1;" vertex="1" parent="W4uiLEeoLuCb4RiQdhrC-1">
          <mxGeometry x="232" y="570" width="159" height="80" as="geometry" />
        </mxCell>
        <mxCell id="5jOQ8ZJGuLPBJwibekyH-10" value="end" style="shape=mxgraph.flowchart.terminator;strokeWidth=2;gradientColor=none;gradientDirection=north;fontStyle=0;html=1;" vertex="1" parent="W4uiLEeoLuCb4RiQdhrC-1">
          <mxGeometry x="240.5" y="680" width="120" height="30" as="geometry" />
        </mxCell>
        <mxCell id="5jOQ8ZJGuLPBJwibekyH-11" value="" style="endArrow=classic;html=1;exitX=0.456;exitY=0.988;exitDx=0;exitDy=0;exitPerimeter=0;" edge="1" parent="W4uiLEeoLuCb4RiQdhrC-1" source="5jOQ8ZJGuLPBJwibekyH-9" target="5jOQ8ZJGuLPBJwibekyH-10">
          <mxGeometry width="50" height="50" relative="1" as="geometry">
            <mxPoint x="79.5" y="740" as="sourcePoint" />
            <mxPoint x="129.5" y="690" as="targetPoint" />
          </mxGeometry>
        </mxCell>
        <mxCell id="5jOQ8ZJGuLPBJwibekyH-12" value="" style="endArrow=classic;html=1;exitX=0.5;exitY=1;exitDx=0;exitDy=0;exitPerimeter=0;" edge="1" parent="W4uiLEeoLuCb4RiQdhrC-1" source="5jOQ8ZJGuLPBJwibekyH-8" target="5jOQ8ZJGuLPBJwibekyH-9">
          <mxGeometry width="50" height="50" relative="1" as="geometry">
            <mxPoint x="379.5" y="770" as="sourcePoint" />
            <mxPoint x="429.5" y="720" as="targetPoint" />
          </mxGeometry>
        </mxCell>
        <mxCell id="5jOQ8ZJGuLPBJwibekyH-13" value="Yes" style="edgeLabel;html=1;align=center;verticalAlign=middle;resizable=0;points=[];" vertex="1" connectable="0" parent="5jOQ8ZJGuLPBJwibekyH-12">
          <mxGeometry x="-0.2072" y="2" relative="1" as="geometry">
            <mxPoint as="offset" />
          </mxGeometry>
        </mxCell>
        <mxCell id="5jOQ8ZJGuLPBJwibekyH-14" value="" style="endArrow=classic;html=1;exitX=0.5;exitY=1;exitDx=0;exitDy=0;exitPerimeter=0;" edge="1" parent="W4uiLEeoLuCb4RiQdhrC-1" source="5jOQ8ZJGuLPBJwibekyH-6" target="5jOQ8ZJGuLPBJwibekyH-8">
          <mxGeometry width="50" height="50" relative="1" as="geometry">
            <mxPoint x="379.5" y="630" as="sourcePoint" />
            <mxPoint x="429.5" y="580" as="targetPoint" />
          </mxGeometry>
        </mxCell>
        <mxCell id="5jOQ8ZJGuLPBJwibekyH-15" value="" style="endArrow=classic;html=1;exitX=1;exitY=0.5;exitDx=0;exitDy=0;exitPerimeter=0;entryX=1;entryY=0.5;entryDx=0;entryDy=0;entryPerimeter=0;" edge="1" parent="W4uiLEeoLuCb4RiQdhrC-1" source="5jOQ8ZJGuLPBJwibekyH-4" target="5jOQ8ZJGuLPBJwibekyH-10">
          <mxGeometry width="50" height="50" relative="1" as="geometry">
            <mxPoint x="379.5" y="410" as="sourcePoint" />
            <mxPoint x="569.5" y="680" as="targetPoint" />
            <Array as="points">
              <mxPoint x="579.5" y="279" />
              <mxPoint x="579.5" y="695" />
            </Array>
          </mxGeometry>
        </mxCell>
        <mxCell id="5jOQ8ZJGuLPBJwibekyH-16" value="No" style="edgeLabel;html=1;align=center;verticalAlign=middle;resizable=0;points=[];" vertex="1" connectable="0" parent="5jOQ8ZJGuLPBJwibekyH-15">
          <mxGeometry x="-0.8607" y="3" relative="1" as="geometry">
            <mxPoint as="offset" />
          </mxGeometry>
        </mxCell>
        <mxCell id="5jOQ8ZJGuLPBJwibekyH-17" value="" style="endArrow=classic;html=1;exitX=1;exitY=0.5;exitDx=0;exitDy=0;exitPerimeter=0;entryX=0.89;entryY=0.11;entryDx=0;entryDy=0;entryPerimeter=0;" edge="1" parent="W4uiLEeoLuCb4RiQdhrC-1" source="5jOQ8ZJGuLPBJwibekyH-8" target="5jOQ8ZJGuLPBJwibekyH-10">
          <mxGeometry width="50" height="50" relative="1" as="geometry">
            <mxPoint x="379.5" y="480" as="sourcePoint" />
            <mxPoint x="357.5" y="683" as="targetPoint" />
            <Array as="points">
              <mxPoint x="519.5" y="509" />
              <mxPoint x="519.5" y="683" />
            </Array>
          </mxGeometry>
        </mxCell>
        <mxCell id="5jOQ8ZJGuLPBJwibekyH-18" value="No" style="edgeLabel;html=1;align=center;verticalAlign=middle;resizable=0;points=[];" vertex="1" connectable="0" parent="5jOQ8ZJGuLPBJwibekyH-17">
          <mxGeometry x="-0.7698" y="5" relative="1" as="geometry">
            <mxPoint as="offset" />
          </mxGeometry>
        </mxCell>
      </root>
    </mxGraphModel>
  </diagram>
  <diagram id="iMiH1t54JsV_r6FlvmZZ" name="Job">
    <mxGraphModel dx="1186" dy="671" grid="1" gridSize="10" guides="1" tooltips="1" connect="1" arrows="1" fold="1" page="1" pageScale="1" pageWidth="850" pageHeight="1100" math="0" shadow="0">
      <root>
        <mxCell id="7oTH9Wmb2b7Z-Pkp7NGC-0" />
        <mxCell id="7oTH9Wmb2b7Z-Pkp7NGC-1" parent="7oTH9Wmb2b7Z-Pkp7NGC-0" />
        <mxCell id="FTSax8xabwABbLA6d9FX-0" value="start" style="shape=mxgraph.flowchart.terminator;strokeWidth=2;gradientColor=none;gradientDirection=north;fontStyle=0;html=1;" vertex="1" parent="7oTH9Wmb2b7Z-Pkp7NGC-1">
          <mxGeometry x="260" y="60" width="120" height="30" as="geometry" />
        </mxCell>
        <mxCell id="FTSax8xabwABbLA6d9FX-1" value="Check for validity of&lt;br&gt;&amp;nbsp;Authorization token" style="shape=mxgraph.flowchart.data;strokeWidth=2;gradientColor=none;gradientDirection=north;fontStyle=0;html=1;" vertex="1" parent="7oTH9Wmb2b7Z-Pkp7NGC-1">
          <mxGeometry x="240.5" y="130" width="159" height="80" as="geometry" />
        </mxCell>
        <mxCell id="FTSax8xabwABbLA6d9FX-2" style="fontStyle=1;strokeColor=#003366;strokeWidth=1;html=1;" edge="1" parent="7oTH9Wmb2b7Z-Pkp7NGC-1" source="FTSax8xabwABbLA6d9FX-0" target="FTSax8xabwABbLA6d9FX-1">
          <mxGeometry relative="1" as="geometry" />
        </mxCell>
        <mxCell id="FTSax8xabwABbLA6d9FX-3" style="fontStyle=1;strokeColor=#003366;strokeWidth=1;html=1;entryX=0.5;entryY=0;entryDx=0;entryDy=0;entryPerimeter=0;" edge="1" parent="7oTH9Wmb2b7Z-Pkp7NGC-1" target="FTSax8xabwABbLA6d9FX-4">
          <mxGeometry relative="1" as="geometry">
            <mxPoint x="312" y="209" as="sourcePoint" />
          </mxGeometry>
        </mxCell>
        <mxCell id="FTSax8xabwABbLA6d9FX-4" value="Valid?" style="shape=mxgraph.flowchart.decision;strokeWidth=2;gradientColor=none;gradientDirection=north;fontStyle=0;html=1;" vertex="1" parent="7oTH9Wmb2b7Z-Pkp7NGC-1">
          <mxGeometry x="262.5" y="250" width="98" height="57" as="geometry" />
        </mxCell>
        <mxCell id="FTSax8xabwABbLA6d9FX-5" value="Yes" style="edgeStyle=orthogonalEdgeStyle;rounded=0;orthogonalLoop=1;jettySize=auto;html=1;" edge="1" parent="7oTH9Wmb2b7Z-Pkp7NGC-1" source="FTSax8xabwABbLA6d9FX-6" target="FTSax8xabwABbLA6d9FX-4">
          <mxGeometry relative="1" as="geometry" />
        </mxCell>
        <mxCell id="FTSax8xabwABbLA6d9FX-6" value="Check for Job&amp;nbsp;exists" style="shape=mxgraph.flowchart.data;strokeWidth=2;gradientColor=none;gradientDirection=north;fontStyle=0;html=1;" vertex="1" parent="7oTH9Wmb2b7Z-Pkp7NGC-1">
          <mxGeometry x="230" y="350" width="159" height="80" as="geometry" />
        </mxCell>
        <mxCell id="FTSax8xabwABbLA6d9FX-7" style="fontStyle=1;strokeColor=#003366;strokeWidth=1;html=1;" edge="1" parent="7oTH9Wmb2b7Z-Pkp7NGC-1">
          <mxGeometry relative="1" as="geometry">
            <mxPoint x="310.5" y="320" as="sourcePoint" />
            <mxPoint x="310.5" y="350" as="targetPoint" />
            <Array as="points">
              <mxPoint x="310.5" y="300" />
              <mxPoint x="310.5" y="320" />
            </Array>
          </mxGeometry>
        </mxCell>
        <mxCell id="FTSax8xabwABbLA6d9FX-8" value="Prensent?" style="shape=mxgraph.flowchart.decision;strokeWidth=2;gradientColor=none;gradientDirection=north;fontStyle=0;html=1;" vertex="1" parent="7oTH9Wmb2b7Z-Pkp7NGC-1">
          <mxGeometry x="259.5" y="480" width="98" height="57" as="geometry" />
        </mxCell>
        <mxCell id="FTSax8xabwABbLA6d9FX-9" value="Return Response" style="shape=mxgraph.flowchart.data;strokeWidth=2;gradientColor=none;gradientDirection=north;fontStyle=0;html=1;" vertex="1" parent="7oTH9Wmb2b7Z-Pkp7NGC-1">
          <mxGeometry x="232" y="570" width="159" height="80" as="geometry" />
        </mxCell>
        <mxCell id="FTSax8xabwABbLA6d9FX-10" value="end" style="shape=mxgraph.flowchart.terminator;strokeWidth=2;gradientColor=none;gradientDirection=north;fontStyle=0;html=1;" vertex="1" parent="7oTH9Wmb2b7Z-Pkp7NGC-1">
          <mxGeometry x="240.5" y="680" width="120" height="30" as="geometry" />
        </mxCell>
        <mxCell id="FTSax8xabwABbLA6d9FX-11" value="" style="endArrow=classic;html=1;exitX=0.456;exitY=0.988;exitDx=0;exitDy=0;exitPerimeter=0;" edge="1" parent="7oTH9Wmb2b7Z-Pkp7NGC-1" source="FTSax8xabwABbLA6d9FX-9" target="FTSax8xabwABbLA6d9FX-10">
          <mxGeometry width="50" height="50" relative="1" as="geometry">
            <mxPoint x="79.5" y="740" as="sourcePoint" />
            <mxPoint x="129.5" y="690" as="targetPoint" />
          </mxGeometry>
        </mxCell>
        <mxCell id="FTSax8xabwABbLA6d9FX-12" value="" style="endArrow=classic;html=1;exitX=0.5;exitY=1;exitDx=0;exitDy=0;exitPerimeter=0;" edge="1" parent="7oTH9Wmb2b7Z-Pkp7NGC-1" source="FTSax8xabwABbLA6d9FX-8" target="FTSax8xabwABbLA6d9FX-9">
          <mxGeometry width="50" height="50" relative="1" as="geometry">
            <mxPoint x="379.5" y="770" as="sourcePoint" />
            <mxPoint x="429.5" y="720" as="targetPoint" />
          </mxGeometry>
        </mxCell>
        <mxCell id="FTSax8xabwABbLA6d9FX-13" value="Yes" style="edgeLabel;html=1;align=center;verticalAlign=middle;resizable=0;points=[];" vertex="1" connectable="0" parent="FTSax8xabwABbLA6d9FX-12">
          <mxGeometry x="-0.2072" y="2" relative="1" as="geometry">
            <mxPoint as="offset" />
          </mxGeometry>
        </mxCell>
        <mxCell id="FTSax8xabwABbLA6d9FX-14" value="" style="endArrow=classic;html=1;exitX=0.5;exitY=1;exitDx=0;exitDy=0;exitPerimeter=0;" edge="1" parent="7oTH9Wmb2b7Z-Pkp7NGC-1" source="FTSax8xabwABbLA6d9FX-6" target="FTSax8xabwABbLA6d9FX-8">
          <mxGeometry width="50" height="50" relative="1" as="geometry">
            <mxPoint x="379.5" y="630" as="sourcePoint" />
            <mxPoint x="429.5" y="580" as="targetPoint" />
          </mxGeometry>
        </mxCell>
        <mxCell id="FTSax8xabwABbLA6d9FX-15" value="" style="endArrow=classic;html=1;exitX=1;exitY=0.5;exitDx=0;exitDy=0;exitPerimeter=0;entryX=1;entryY=0.5;entryDx=0;entryDy=0;entryPerimeter=0;" edge="1" parent="7oTH9Wmb2b7Z-Pkp7NGC-1" source="FTSax8xabwABbLA6d9FX-4" target="FTSax8xabwABbLA6d9FX-10">
          <mxGeometry width="50" height="50" relative="1" as="geometry">
            <mxPoint x="379.5" y="410" as="sourcePoint" />
            <mxPoint x="569.5" y="680" as="targetPoint" />
            <Array as="points">
              <mxPoint x="579.5" y="279" />
              <mxPoint x="579.5" y="695" />
            </Array>
          </mxGeometry>
        </mxCell>
        <mxCell id="FTSax8xabwABbLA6d9FX-16" value="No" style="edgeLabel;html=1;align=center;verticalAlign=middle;resizable=0;points=[];" vertex="1" connectable="0" parent="FTSax8xabwABbLA6d9FX-15">
          <mxGeometry x="-0.8607" y="3" relative="1" as="geometry">
            <mxPoint as="offset" />
          </mxGeometry>
        </mxCell>
        <mxCell id="FTSax8xabwABbLA6d9FX-17" value="" style="endArrow=classic;html=1;exitX=1;exitY=0.5;exitDx=0;exitDy=0;exitPerimeter=0;entryX=0.89;entryY=0.11;entryDx=0;entryDy=0;entryPerimeter=0;" edge="1" parent="7oTH9Wmb2b7Z-Pkp7NGC-1" source="FTSax8xabwABbLA6d9FX-8" target="FTSax8xabwABbLA6d9FX-10">
          <mxGeometry width="50" height="50" relative="1" as="geometry">
            <mxPoint x="379.5" y="480" as="sourcePoint" />
            <mxPoint x="357.5" y="683" as="targetPoint" />
            <Array as="points">
              <mxPoint x="519.5" y="509" />
              <mxPoint x="519.5" y="683" />
            </Array>
          </mxGeometry>
        </mxCell>
        <mxCell id="FTSax8xabwABbLA6d9FX-18" value="No" style="edgeLabel;html=1;align=center;verticalAlign=middle;resizable=0;points=[];" vertex="1" connectable="0" parent="FTSax8xabwABbLA6d9FX-17">
          <mxGeometry x="-0.7698" y="5" relative="1" as="geometry">
            <mxPoint as="offset" />
          </mxGeometry>
        </mxCell>
      </root>
    </mxGraphModel>
  </diagram>
  <diagram id="-_I7SiwUwiNQfEJYMs8Z" name="Fast Favorites API">
    <mxGraphModel dx="1186" dy="671" grid="1" gridSize="10" guides="1" tooltips="1" connect="1" arrows="1" fold="1" page="1" pageScale="1" pageWidth="850" pageHeight="1100" math="0" shadow="0">
      <root>
        <mxCell id="-ODmHnxIT4-CYvDNfe4j-0" />
        <mxCell id="-ODmHnxIT4-CYvDNfe4j-1" parent="-ODmHnxIT4-CYvDNfe4j-0" />
        <mxCell id="FnXpPhIUbRGwKU4XCVGu-0" value="start" style="shape=mxgraph.flowchart.terminator;strokeWidth=2;gradientColor=none;gradientDirection=north;fontStyle=0;html=1;" vertex="1" parent="-ODmHnxIT4-CYvDNfe4j-1">
          <mxGeometry x="260" y="60" width="120" height="30" as="geometry" />
        </mxCell>
        <mxCell id="FnXpPhIUbRGwKU4XCVGu-1" value="Check for validity of&lt;br&gt;&amp;nbsp;Authorization token" style="shape=mxgraph.flowchart.data;strokeWidth=2;gradientColor=none;gradientDirection=north;fontStyle=0;html=1;" vertex="1" parent="-ODmHnxIT4-CYvDNfe4j-1">
          <mxGeometry x="240.5" y="130" width="159" height="80" as="geometry" />
        </mxCell>
        <mxCell id="FnXpPhIUbRGwKU4XCVGu-2" style="fontStyle=1;strokeColor=#003366;strokeWidth=1;html=1;" edge="1" parent="-ODmHnxIT4-CYvDNfe4j-1" source="FnXpPhIUbRGwKU4XCVGu-0" target="FnXpPhIUbRGwKU4XCVGu-1">
          <mxGeometry relative="1" as="geometry" />
        </mxCell>
        <mxCell id="FnXpPhIUbRGwKU4XCVGu-3" style="fontStyle=1;strokeColor=#003366;strokeWidth=1;html=1;entryX=0.5;entryY=0;entryDx=0;entryDy=0;entryPerimeter=0;" edge="1" parent="-ODmHnxIT4-CYvDNfe4j-1" target="FnXpPhIUbRGwKU4XCVGu-4">
          <mxGeometry relative="1" as="geometry">
            <mxPoint x="312" y="209" as="sourcePoint" />
          </mxGeometry>
        </mxCell>
        <mxCell id="FnXpPhIUbRGwKU4XCVGu-4" value="Valid?" style="shape=mxgraph.flowchart.decision;strokeWidth=2;gradientColor=none;gradientDirection=north;fontStyle=0;html=1;" vertex="1" parent="-ODmHnxIT4-CYvDNfe4j-1">
          <mxGeometry x="262.5" y="250" width="98" height="57" as="geometry" />
        </mxCell>
        <mxCell id="FnXpPhIUbRGwKU4XCVGu-5" value="Yes" style="edgeStyle=orthogonalEdgeStyle;rounded=0;orthogonalLoop=1;jettySize=auto;html=1;" edge="1" parent="-ODmHnxIT4-CYvDNfe4j-1" source="FnXpPhIUbRGwKU4XCVGu-6" target="FnXpPhIUbRGwKU4XCVGu-4">
          <mxGeometry relative="1" as="geometry" />
        </mxCell>
        <mxCell id="FnXpPhIUbRGwKU4XCVGu-6" value="Check for Fast&lt;br&gt;Favorites exists" style="shape=mxgraph.flowchart.data;strokeWidth=2;gradientColor=none;gradientDirection=north;fontStyle=0;html=1;" vertex="1" parent="-ODmHnxIT4-CYvDNfe4j-1">
          <mxGeometry x="230" y="350" width="159" height="80" as="geometry" />
        </mxCell>
        <mxCell id="FnXpPhIUbRGwKU4XCVGu-7" style="fontStyle=1;strokeColor=#003366;strokeWidth=1;html=1;" edge="1" parent="-ODmHnxIT4-CYvDNfe4j-1">
          <mxGeometry relative="1" as="geometry">
            <mxPoint x="310.5" y="320" as="sourcePoint" />
            <mxPoint x="310.5" y="350" as="targetPoint" />
            <Array as="points">
              <mxPoint x="310.5" y="300" />
              <mxPoint x="310.5" y="320" />
            </Array>
          </mxGeometry>
        </mxCell>
        <mxCell id="FnXpPhIUbRGwKU4XCVGu-8" value="Prensent?" style="shape=mxgraph.flowchart.decision;strokeWidth=2;gradientColor=none;gradientDirection=north;fontStyle=0;html=1;" vertex="1" parent="-ODmHnxIT4-CYvDNfe4j-1">
          <mxGeometry x="259.5" y="480" width="98" height="57" as="geometry" />
        </mxCell>
        <mxCell id="FnXpPhIUbRGwKU4XCVGu-9" value="Return Response" style="shape=mxgraph.flowchart.data;strokeWidth=2;gradientColor=none;gradientDirection=north;fontStyle=0;html=1;" vertex="1" parent="-ODmHnxIT4-CYvDNfe4j-1">
          <mxGeometry x="232" y="570" width="159" height="80" as="geometry" />
        </mxCell>
        <mxCell id="FnXpPhIUbRGwKU4XCVGu-10" value="end" style="shape=mxgraph.flowchart.terminator;strokeWidth=2;gradientColor=none;gradientDirection=north;fontStyle=0;html=1;" vertex="1" parent="-ODmHnxIT4-CYvDNfe4j-1">
          <mxGeometry x="240.5" y="680" width="120" height="30" as="geometry" />
        </mxCell>
        <mxCell id="FnXpPhIUbRGwKU4XCVGu-11" value="" style="endArrow=classic;html=1;exitX=0.456;exitY=0.988;exitDx=0;exitDy=0;exitPerimeter=0;" edge="1" parent="-ODmHnxIT4-CYvDNfe4j-1" source="FnXpPhIUbRGwKU4XCVGu-9" target="FnXpPhIUbRGwKU4XCVGu-10">
          <mxGeometry width="50" height="50" relative="1" as="geometry">
            <mxPoint x="79.5" y="740" as="sourcePoint" />
            <mxPoint x="129.5" y="690" as="targetPoint" />
          </mxGeometry>
        </mxCell>
        <mxCell id="FnXpPhIUbRGwKU4XCVGu-12" value="" style="endArrow=classic;html=1;exitX=0.5;exitY=1;exitDx=0;exitDy=0;exitPerimeter=0;" edge="1" parent="-ODmHnxIT4-CYvDNfe4j-1" source="FnXpPhIUbRGwKU4XCVGu-8" target="FnXpPhIUbRGwKU4XCVGu-9">
          <mxGeometry width="50" height="50" relative="1" as="geometry">
            <mxPoint x="379.5" y="770" as="sourcePoint" />
            <mxPoint x="429.5" y="720" as="targetPoint" />
          </mxGeometry>
        </mxCell>
        <mxCell id="FnXpPhIUbRGwKU4XCVGu-13" value="Yes" style="edgeLabel;html=1;align=center;verticalAlign=middle;resizable=0;points=[];" vertex="1" connectable="0" parent="FnXpPhIUbRGwKU4XCVGu-12">
          <mxGeometry x="-0.2072" y="2" relative="1" as="geometry">
            <mxPoint as="offset" />
          </mxGeometry>
        </mxCell>
        <mxCell id="FnXpPhIUbRGwKU4XCVGu-14" value="" style="endArrow=classic;html=1;exitX=0.5;exitY=1;exitDx=0;exitDy=0;exitPerimeter=0;" edge="1" parent="-ODmHnxIT4-CYvDNfe4j-1" source="FnXpPhIUbRGwKU4XCVGu-6" target="FnXpPhIUbRGwKU4XCVGu-8">
          <mxGeometry width="50" height="50" relative="1" as="geometry">
            <mxPoint x="379.5" y="630" as="sourcePoint" />
            <mxPoint x="429.5" y="580" as="targetPoint" />
          </mxGeometry>
        </mxCell>
        <mxCell id="FnXpPhIUbRGwKU4XCVGu-15" value="" style="endArrow=classic;html=1;exitX=1;exitY=0.5;exitDx=0;exitDy=0;exitPerimeter=0;entryX=1;entryY=0.5;entryDx=0;entryDy=0;entryPerimeter=0;" edge="1" parent="-ODmHnxIT4-CYvDNfe4j-1" source="FnXpPhIUbRGwKU4XCVGu-4" target="FnXpPhIUbRGwKU4XCVGu-10">
          <mxGeometry width="50" height="50" relative="1" as="geometry">
            <mxPoint x="379.5" y="410" as="sourcePoint" />
            <mxPoint x="569.5" y="680" as="targetPoint" />
            <Array as="points">
              <mxPoint x="579.5" y="279" />
              <mxPoint x="579.5" y="695" />
            </Array>
          </mxGeometry>
        </mxCell>
        <mxCell id="FnXpPhIUbRGwKU4XCVGu-16" value="No" style="edgeLabel;html=1;align=center;verticalAlign=middle;resizable=0;points=[];" vertex="1" connectable="0" parent="FnXpPhIUbRGwKU4XCVGu-15">
          <mxGeometry x="-0.8607" y="3" relative="1" as="geometry">
            <mxPoint as="offset" />
          </mxGeometry>
        </mxCell>
        <mxCell id="FnXpPhIUbRGwKU4XCVGu-17" value="" style="endArrow=classic;html=1;exitX=1;exitY=0.5;exitDx=0;exitDy=0;exitPerimeter=0;entryX=0.89;entryY=0.11;entryDx=0;entryDy=0;entryPerimeter=0;" edge="1" parent="-ODmHnxIT4-CYvDNfe4j-1" source="FnXpPhIUbRGwKU4XCVGu-8" target="FnXpPhIUbRGwKU4XCVGu-10">
          <mxGeometry width="50" height="50" relative="1" as="geometry">
            <mxPoint x="379.5" y="480" as="sourcePoint" />
            <mxPoint x="357.5" y="683" as="targetPoint" />
            <Array as="points">
              <mxPoint x="519.5" y="509" />
              <mxPoint x="519.5" y="683" />
            </Array>
          </mxGeometry>
        </mxCell>
        <mxCell id="FnXpPhIUbRGwKU4XCVGu-18" value="No" style="edgeLabel;html=1;align=center;verticalAlign=middle;resizable=0;points=[];" vertex="1" connectable="0" parent="FnXpPhIUbRGwKU4XCVGu-17">
          <mxGeometry x="-0.7698" y="5" relative="1" as="geometry">
            <mxPoint as="offset" />
          </mxGeometry>
        </mxCell>
      </root>
    </mxGraphModel>
  </diagram>
  <diagram id="IUrHv7oIqfl_oEO1PGFe" name="Role &amp; Privileges API">
    <mxGraphModel dx="1186" dy="671" grid="1" gridSize="10" guides="1" tooltips="1" connect="1" arrows="1" fold="1" page="1" pageScale="1" pageWidth="850" pageHeight="1100" math="0" shadow="0">
      <root>
        <mxCell id="UUfI8pzCaFTBAoVmbh1--0" />
        <mxCell id="UUfI8pzCaFTBAoVmbh1--1" parent="UUfI8pzCaFTBAoVmbh1--0" />
        <mxCell id="ZfmbubIA6qCPCV3BfEeb-0" value="start" style="shape=mxgraph.flowchart.terminator;strokeWidth=2;gradientColor=none;gradientDirection=north;fontStyle=0;html=1;" vertex="1" parent="UUfI8pzCaFTBAoVmbh1--1">
          <mxGeometry x="260" y="60" width="120" height="30" as="geometry" />
        </mxCell>
        <mxCell id="ZfmbubIA6qCPCV3BfEeb-1" value="Check for validity of&lt;br&gt;&amp;nbsp;Authorization token" style="shape=mxgraph.flowchart.data;strokeWidth=2;gradientColor=none;gradientDirection=north;fontStyle=0;html=1;" vertex="1" parent="UUfI8pzCaFTBAoVmbh1--1">
          <mxGeometry x="240.5" y="130" width="159" height="80" as="geometry" />
        </mxCell>
        <mxCell id="ZfmbubIA6qCPCV3BfEeb-2" style="fontStyle=1;strokeColor=#003366;strokeWidth=1;html=1;" edge="1" parent="UUfI8pzCaFTBAoVmbh1--1" source="ZfmbubIA6qCPCV3BfEeb-0" target="ZfmbubIA6qCPCV3BfEeb-1">
          <mxGeometry relative="1" as="geometry" />
        </mxCell>
        <mxCell id="ZfmbubIA6qCPCV3BfEeb-3" style="fontStyle=1;strokeColor=#003366;strokeWidth=1;html=1;entryX=0.5;entryY=0;entryDx=0;entryDy=0;entryPerimeter=0;" edge="1" parent="UUfI8pzCaFTBAoVmbh1--1" target="ZfmbubIA6qCPCV3BfEeb-4">
          <mxGeometry relative="1" as="geometry">
            <mxPoint x="312" y="209" as="sourcePoint" />
          </mxGeometry>
        </mxCell>
        <mxCell id="ZfmbubIA6qCPCV3BfEeb-4" value="Valid?" style="shape=mxgraph.flowchart.decision;strokeWidth=2;gradientColor=none;gradientDirection=north;fontStyle=0;html=1;" vertex="1" parent="UUfI8pzCaFTBAoVmbh1--1">
          <mxGeometry x="262.5" y="250" width="98" height="57" as="geometry" />
        </mxCell>
        <mxCell id="ZfmbubIA6qCPCV3BfEeb-5" value="Yes" style="edgeStyle=orthogonalEdgeStyle;rounded=0;orthogonalLoop=1;jettySize=auto;html=1;" edge="1" parent="UUfI8pzCaFTBAoVmbh1--1" source="ZfmbubIA6qCPCV3BfEeb-6" target="ZfmbubIA6qCPCV3BfEeb-4">
          <mxGeometry relative="1" as="geometry" />
        </mxCell>
        <mxCell id="ZfmbubIA6qCPCV3BfEeb-6" value="Check for Roles &amp;amp; &lt;br&gt;Privileges&amp;nbsp;exists" style="shape=mxgraph.flowchart.data;strokeWidth=2;gradientColor=none;gradientDirection=north;fontStyle=0;html=1;" vertex="1" parent="UUfI8pzCaFTBAoVmbh1--1">
          <mxGeometry x="230" y="350" width="159" height="80" as="geometry" />
        </mxCell>
        <mxCell id="ZfmbubIA6qCPCV3BfEeb-7" style="fontStyle=1;strokeColor=#003366;strokeWidth=1;html=1;" edge="1" parent="UUfI8pzCaFTBAoVmbh1--1">
          <mxGeometry relative="1" as="geometry">
            <mxPoint x="310.5" y="320" as="sourcePoint" />
            <mxPoint x="310.5" y="350" as="targetPoint" />
            <Array as="points">
              <mxPoint x="310.5" y="300" />
              <mxPoint x="310.5" y="320" />
            </Array>
          </mxGeometry>
        </mxCell>
        <mxCell id="ZfmbubIA6qCPCV3BfEeb-8" value="Prensent?" style="shape=mxgraph.flowchart.decision;strokeWidth=2;gradientColor=none;gradientDirection=north;fontStyle=0;html=1;" vertex="1" parent="UUfI8pzCaFTBAoVmbh1--1">
          <mxGeometry x="259.5" y="480" width="98" height="57" as="geometry" />
        </mxCell>
        <mxCell id="ZfmbubIA6qCPCV3BfEeb-9" value="Return Response" style="shape=mxgraph.flowchart.data;strokeWidth=2;gradientColor=none;gradientDirection=north;fontStyle=0;html=1;" vertex="1" parent="UUfI8pzCaFTBAoVmbh1--1">
          <mxGeometry x="232" y="570" width="159" height="80" as="geometry" />
        </mxCell>
        <mxCell id="ZfmbubIA6qCPCV3BfEeb-10" value="end" style="shape=mxgraph.flowchart.terminator;strokeWidth=2;gradientColor=none;gradientDirection=north;fontStyle=0;html=1;" vertex="1" parent="UUfI8pzCaFTBAoVmbh1--1">
          <mxGeometry x="240.5" y="680" width="120" height="30" as="geometry" />
        </mxCell>
        <mxCell id="ZfmbubIA6qCPCV3BfEeb-11" value="" style="endArrow=classic;html=1;exitX=0.456;exitY=0.988;exitDx=0;exitDy=0;exitPerimeter=0;" edge="1" parent="UUfI8pzCaFTBAoVmbh1--1" source="ZfmbubIA6qCPCV3BfEeb-9" target="ZfmbubIA6qCPCV3BfEeb-10">
          <mxGeometry width="50" height="50" relative="1" as="geometry">
            <mxPoint x="79.5" y="740" as="sourcePoint" />
            <mxPoint x="129.5" y="690" as="targetPoint" />
          </mxGeometry>
        </mxCell>
        <mxCell id="ZfmbubIA6qCPCV3BfEeb-12" value="" style="endArrow=classic;html=1;exitX=0.5;exitY=1;exitDx=0;exitDy=0;exitPerimeter=0;" edge="1" parent="UUfI8pzCaFTBAoVmbh1--1" source="ZfmbubIA6qCPCV3BfEeb-8" target="ZfmbubIA6qCPCV3BfEeb-9">
          <mxGeometry width="50" height="50" relative="1" as="geometry">
            <mxPoint x="379.5" y="770" as="sourcePoint" />
            <mxPoint x="429.5" y="720" as="targetPoint" />
          </mxGeometry>
        </mxCell>
        <mxCell id="ZfmbubIA6qCPCV3BfEeb-13" value="Yes" style="edgeLabel;html=1;align=center;verticalAlign=middle;resizable=0;points=[];" vertex="1" connectable="0" parent="ZfmbubIA6qCPCV3BfEeb-12">
          <mxGeometry x="-0.2072" y="2" relative="1" as="geometry">
            <mxPoint as="offset" />
          </mxGeometry>
        </mxCell>
        <mxCell id="ZfmbubIA6qCPCV3BfEeb-14" value="" style="endArrow=classic;html=1;exitX=0.5;exitY=1;exitDx=0;exitDy=0;exitPerimeter=0;" edge="1" parent="UUfI8pzCaFTBAoVmbh1--1" source="ZfmbubIA6qCPCV3BfEeb-6" target="ZfmbubIA6qCPCV3BfEeb-8">
          <mxGeometry width="50" height="50" relative="1" as="geometry">
            <mxPoint x="379.5" y="630" as="sourcePoint" />
            <mxPoint x="429.5" y="580" as="targetPoint" />
          </mxGeometry>
        </mxCell>
        <mxCell id="ZfmbubIA6qCPCV3BfEeb-15" value="" style="endArrow=classic;html=1;exitX=1;exitY=0.5;exitDx=0;exitDy=0;exitPerimeter=0;entryX=1;entryY=0.5;entryDx=0;entryDy=0;entryPerimeter=0;" edge="1" parent="UUfI8pzCaFTBAoVmbh1--1" source="ZfmbubIA6qCPCV3BfEeb-4" target="ZfmbubIA6qCPCV3BfEeb-10">
          <mxGeometry width="50" height="50" relative="1" as="geometry">
            <mxPoint x="379.5" y="410" as="sourcePoint" />
            <mxPoint x="569.5" y="680" as="targetPoint" />
            <Array as="points">
              <mxPoint x="579.5" y="279" />
              <mxPoint x="579.5" y="695" />
            </Array>
          </mxGeometry>
        </mxCell>
        <mxCell id="ZfmbubIA6qCPCV3BfEeb-16" value="No" style="edgeLabel;html=1;align=center;verticalAlign=middle;resizable=0;points=[];" vertex="1" connectable="0" parent="ZfmbubIA6qCPCV3BfEeb-15">
          <mxGeometry x="-0.8607" y="3" relative="1" as="geometry">
            <mxPoint as="offset" />
          </mxGeometry>
        </mxCell>
        <mxCell id="ZfmbubIA6qCPCV3BfEeb-17" value="" style="endArrow=classic;html=1;exitX=1;exitY=0.5;exitDx=0;exitDy=0;exitPerimeter=0;entryX=0.89;entryY=0.11;entryDx=0;entryDy=0;entryPerimeter=0;" edge="1" parent="UUfI8pzCaFTBAoVmbh1--1" source="ZfmbubIA6qCPCV3BfEeb-8" target="ZfmbubIA6qCPCV3BfEeb-10">
          <mxGeometry width="50" height="50" relative="1" as="geometry">
            <mxPoint x="379.5" y="480" as="sourcePoint" />
            <mxPoint x="357.5" y="683" as="targetPoint" />
            <Array as="points">
              <mxPoint x="519.5" y="509" />
              <mxPoint x="519.5" y="683" />
            </Array>
          </mxGeometry>
        </mxCell>
        <mxCell id="ZfmbubIA6qCPCV3BfEeb-18" value="No" style="edgeLabel;html=1;align=center;verticalAlign=middle;resizable=0;points=[];" vertex="1" connectable="0" parent="ZfmbubIA6qCPCV3BfEeb-17">
          <mxGeometry x="-0.7698" y="5" relative="1" as="geometry">
            <mxPoint as="offset" />
          </mxGeometry>
        </mxCell>
      </root>
    </mxGraphModel>
  </diagram>
</mxfile>
